<?xml version="1.0" encoding="UTF-8" standalone="no"?>
<!-- Created with Inkscape (http://www.inkscape.org/) -->

<svg
   xmlns:dc="http://purl.org/dc/elements/1.1/"
   xmlns:cc="http://creativecommons.org/ns#"
   xmlns:rdf="http://www.w3.org/1999/02/22-rdf-syntax-ns#"
   xmlns:svg="http://www.w3.org/2000/svg"
   xmlns="http://www.w3.org/2000/svg"
   xmlns:sodipodi="http://sodipodi.sourceforge.net/DTD/sodipodi-0.dtd"
   xmlns:inkscape="http://www.inkscape.org/namespaces/inkscape"
   width="744.09448819"
   height="1052.3622047"
   id="svg2"
   version="1.1"
   inkscape:version="0.48.4 r9939"
   sodipodi:docname="derivative-2.svg">
  <sodipodi:namedview
     id="base"
     pagecolor="#ffffff"
     bordercolor="#666666"
     borderopacity="1.0"
     inkscape:pageopacity="0.0"
     inkscape:pageshadow="2"
     inkscape:zoom="0.35"
     inkscape:cx="-118.35293"
     inkscape:cy="462.93006"
     inkscape:document-units="px"
     inkscape:current-layer="layer1"
     showgrid="false"
     inkscape:window-width="1319"
     inkscape:window-height="744"
     inkscape:window-x="47"
     inkscape:window-y="24"
     inkscape:window-maximized="1" />
  <defs
     id="defs4">
    <marker
       style="overflow:visible;"
       id="Arrow1Lend"
       refX="0.0"
       refY="0.0"
       orient="auto"
       inkscape:stockid="Arrow1Lend">
      <path
         transform="scale(0.8) rotate(180) translate(12.5,0)"
         style="fill-rule:evenodd;stroke:#000000;stroke-width:1.0pt;"
         d="M 0.0,0.0 L 5.0,-5.0 L -12.5,0.0 L 5.0,5.0 L 0.0,0.0 z "
         id="path4005" />
    </marker>
  </defs>
  <metadata
     id="metadata7">
    <rdf:RDF>
      <cc:Work
         rdf:about="">
        <dc:format>image/svg+xml</dc:format>
        <dc:type
           rdf:resource="http://purl.org/dc/dcmitype/StillImage" />
        <dc:title />
      </cc:Work>
    </rdf:RDF>
  </metadata>
  <g
     inkscape:label="Layer 1"
     inkscape:groupmode="layer"
     id="layer1">
    <path
       style="fill:none;stroke:#000000;stroke-width:5;stroke-linecap:butt;stroke-linejoin:miter;stroke-opacity:1;stroke-miterlimit:4;stroke-dasharray:none"
       d="m 151.42857,635.21933 c 0,0 354.28572,128.57142 420,-365.71429 65.71429,-494.28571 65.71429,-494.28571 65.71429,-494.28571"
       id="path3003"
       inkscape:connector-curvature="0" />
    <path
       style="fill:none;stroke:#000000;stroke-width:1px;stroke-linecap:butt;stroke-linejoin:miter;stroke-opacity:1"
       d="M 189.06984,890.73041 602.35874,148.27967"
       id="path3773"
       inkscape:connector-curvature="0" />
    <path
       style="fill:none;stroke:#000000;stroke-width:1px;stroke-linecap:butt;stroke-linejoin:miter;stroke-opacity:1"
       d="M -8.5714286,-233.3521 -14.285714,869.50504"
       id="path3775"
       inkscape:connector-curvature="0" />
    <path
       style="fill:none;stroke:#000000;stroke-width:1px;stroke-linecap:butt;stroke-linejoin:miter;stroke-opacity:1"
       d="M -117.14286,826.6479 828.57143,803.79075"
       id="path3777"
       inkscape:connector-curvature="0" />
    <g
       transform="matrix(1.8624894,0,0,1.8624894,-632.48541,230.67427)"
       id="g3788">
      <g
         style="font-style:normal;font-variant:normal;font-weight:normal;font-stretch:normal;letter-spacing:normal;word-spacing:normal;text-anchor:start;fill:none;stroke:#000000;stroke-linecap:butt;stroke-linejoin:miter;stroke-miterlimit:10.43299961;stroke-opacity:1;stroke-dasharray:none;stroke-dashoffset:0"
         id="content"
         transform="matrix(1.0629921,0,0,-1.0629921,-186.02362,789.27165)"
         xml:space="preserve"
         stroke-miterlimit="10.433"
         font-style="normal"
         font-variant="normal"
         font-weight="normal"
         font-stretch="normal"
         font-size-adjust="none"
         letter-spacing="normal"
         word-spacing="normal"><path
           style="fill:#000000;stroke-width:0"
           inkscape:connector-curvature="0"
           d="m 478.44,422.14 0,0.74 -0.01,0.75 -0.02,0.75 -0.04,0.74 -0.04,0.75 -0.06,0.74 -0.08,0.74 -0.09,0.73 -0.12,0.73 -0.14,0.73 -0.16,0.72 -0.19,0.72 -0.21,0.72 -0.25,0.7 -0.28,0.7 -0.15,0.35 -0.16,0.34 c -2.28,4.8 -6.37,5.6 -8.47,5.6 -2.98,0 -6.62,-1.3 -8.67,-5.94 -1.59,-3.44 -1.84,-7.33 -1.84,-11.31 0,-3.74 0.2,-8.22 2.25,-12 2.14,-4.03 5.78,-5.03 8.22,-5.03 v 1.09 c -1.94,0 -4.89,1.25 -5.79,6.03 -0.54,2.98 -0.54,7.56 -0.54,10.52 0,3.18 0,6.46 0.4,9.15 0.94,5.94 4.68,6.38 5.93,6.38 1.64,0 4.93,-0.89 5.87,-5.83 0.5,-2.78 0.5,-6.58 0.5,-9.7 0,-3.75 0,-7.13 -0.55,-10.32 -0.75,-4.73 -3.59,-6.23 -5.82,-6.23 h 0 v -1.09 c 2.68,0 6.46,1.04 8.67,5.78 1.59,3.43 1.84,7.31 1.84,11.25 z"
           id="path3791" /></g>    </g>
    <g
       transform="matrix(1.3159366,0,0,1.3159366,408.19781,392.77191)"
       id="g3815">
      <g
         style="font-style:normal;font-variant:normal;font-weight:normal;font-stretch:normal;letter-spacing:normal;word-spacing:normal;text-anchor:start;fill:none;stroke:#000000;stroke-linecap:butt;stroke-linejoin:miter;stroke-miterlimit:10.43299961;stroke-opacity:1;stroke-dasharray:none;stroke-dashoffset:0"
         word-spacing="normal"
         letter-spacing="normal"
         font-size-adjust="none"
         font-stretch="normal"
         font-weight="normal"
         font-variant="normal"
         font-style="normal"
         stroke-miterlimit="10.433"
         xml:space="preserve"
         transform="matrix(1.0629921,0,0,-1.0629921,-186.02362,789.27165)"
         id="g3817"><path
           style="fill:#000000;stroke-width:0"
           inkscape:connector-curvature="0"
           id="path3819"
           d="m 479.68,426.68 -4.18,9.91 c -0.15,0.41 -0.25,0.59 -0.25,0.64 0,0.31 0.85,1.25 2.94,1.45 0.5,0.05 1,0.1 1,0.96 0,0.59 -0.61,0.59 -0.75,0.59 -2.05,0 -4.19,-0.16 -6.28,-0.16 -1.25,0 -4.33,0.16 -5.58,0.16 -0.29,0 -0.9,0 -0.9,-1 0,-0.55 0.5,-0.55 1.15,-0.55 2.99,0 3.28,-0.5 3.74,-1.59 l 5.87,-13.91 -10.51,-11.31 -0.64,-0.55 c -2.44,-2.64 -4.79,-3.43 -7.33,-3.57 -0.64,-0.05 -1.1,-0.05 -1.1,-1 0,-0.05 0,-0.55 0.66,-0.55 1.48,0 3.12,0.16 4.67,0.16 1.85,0 3.8,-0.16 5.58,-0.16 0.31,0 0.91,0 0.91,1 0,0.5 -0.5,0.55 -0.6,0.55 -0.45,0.04 -2,0.14 -2,1.54 0,0.8 0.75,1.6 1.35,2.24 l 5.07,5.39 4.49,4.87 5.03,-11.9 c 0.2,-0.55 0.25,-0.6 0.25,-0.71 0,-0.39 -0.94,-1.23 -2.89,-1.43 -0.55,-0.05 -0.99,-0.11 -0.99,-0.96 0,-0.59 0.55,-0.59 0.74,-0.59 1.41,0 4.89,0.16 6.28,0.16 1.25,0 4.28,-0.16 5.53,-0.16 0.35,0 0.95,0 0.95,0.95 0,0.6 -0.5,0.6 -0.9,0.6 -3.33,0.04 -3.44,0.2 -4.28,2.18 -1.94,4.64 -5.28,12.41 -6.42,15.39 3.39,3.5 8.6,9.43 10.2,10.82 1.45,1.2 3.34,2.39 6.33,2.54 0.65,0.05 1.09,0.05 1.09,1 0,0.05 0,0.55 -0.64,0.55 -1.5,0 -3.14,-0.16 -4.69,-0.16 -1.84,0 -3.73,0.16 -5.53,0.16 -0.3,0 -0.94,0 -0.94,-1 0,-0.34 0.25,-0.5 0.6,-0.55 0.45,-0.04 2,-0.15 2,-1.54 0,-0.71 -0.55,-1.35 -0.96,-1.8 z" /></g>    </g>
    <g
       transform="matrix(1.5528891,0,0,1.5528891,-543.03765,-734.792)"
       id="g3849">
      <g
         style="font-style:normal;font-variant:normal;font-weight:normal;font-stretch:normal;letter-spacing:normal;word-spacing:normal;text-anchor:start;fill:none;stroke:#000000;stroke-linecap:butt;stroke-linejoin:miter;stroke-miterlimit:10.43299961;stroke-opacity:1;stroke-dasharray:none;stroke-dashoffset:0"
         id="g3851"
         transform="matrix(1.0629921,0,0,-1.0629921,-186.02362,789.27165)"
         xml:space="preserve"
         stroke-miterlimit="10.433"
         font-style="normal"
         font-variant="normal"
         font-weight="normal"
         font-stretch="normal"
         font-size-adjust="none"
         letter-spacing="normal"
         word-spacing="normal"><path
           style="fill:#000000;stroke-width:0"
           inkscape:connector-curvature="0"
           d="m 485.27,434.54 0.69,0.71 c 1.5,1.5 3.14,3.18 6.53,3.43 0.55,0.05 1,0.05 1,0.96 0,0.39 -0.25,0.59 -0.66,0.59 -1.29,0 -2.73,-0.16 -4.08,-0.16 -1.64,0 -3.39,0.16 -4.98,0.16 -0.3,0 -0.95,0 -0.95,-0.95 0,-0.55 0.5,-0.6 0.75,-0.6 0.34,0 1.79,-0.09 1.79,-1.14 0,-0.86 -1.14,-2.14 -1.34,-2.39 l -11.56,-13.31 -5.49,14.8 c -0.29,0.7 -0.29,0.79 -0.29,0.84 0,1.2 2.43,1.2 2.93,1.2 0.71,0 1.21,0 1.21,1 0,0.55 -0.6,0.55 -0.75,0.55 -1.39,0 -4.88,-0.16 -6.28,-0.16 -1.24,0 -4.33,0.16 -5.58,0.16 -0.3,0 -0.94,0 -0.94,-1 0,-0.55 0.48,-0.55 1.14,-0.55 2.98,0 3.19,-0.45 3.64,-1.68 l 6.13,-16.41 c 0.04,-0.14 0.2,-0.69 0.2,-0.84 0,-0.14 -2,-8.18 -2.25,-9.07 -0.64,-2.73 -0.69,-2.89 -4.69,-2.93 -0.94,0 -1.34,0 -1.34,-1 0,-0.55 0.61,-0.55 0.7,-0.55 1.39,0 4.88,0.16 6.28,0.16 1.39,0 4.99,-0.16 6.38,-0.16 0.34,0 0.93,0 0.93,1 0,0.55 -0.43,0.55 -1.39,0.55 -0.09,0 -1.04,0 -1.89,0.09 -1.04,0.11 -1.34,0.2 -1.34,0.8 0,0.36 0.45,2.09 0.7,3.14 l 1.74,7.03 c 0.25,0.94 0.29,1.09 0.7,1.55 z"
           id="path3853" /></g>    </g>
    <g
       id="g3889"
       transform="translate(-426.73464,288.43294)">
      <g
         word-spacing="normal"
         letter-spacing="normal"
         font-size-adjust="none"
         font-stretch="normal"
         font-weight="normal"
         font-variant="normal"
         font-style="normal"
         stroke-miterlimit="10.433"
         xml:space="preserve"
         transform="matrix(1.0629921,0,0,-1.0629921,-186.02362,789.27165)"
         id="g3891"
         style="font-style:normal;font-variant:normal;font-weight:normal;font-stretch:normal;letter-spacing:normal;word-spacing:normal;text-anchor:start;fill:none;stroke:#000000;stroke-linecap:butt;stroke-linejoin:miter;stroke-miterlimit:10.43299961;stroke-opacity:1;stroke-dasharray:none;stroke-dashoffset:0"><path
           id="path3893"
           d="m 473.8,426.12 h 4.28 c 1,0 1.5,0 1.5,1 0,0.55 -0.5,0.55 -1.34,0.55 h -4.14 l 1.04,5.69 c 0.21,1.04 0.91,4.57 1.21,5.17 0.45,0.95 1.29,1.7 2.34,1.7 0.19,0 1.49,0 2.44,-0.91 -2.19,-0.18 -2.69,-1.93 -2.69,-2.68 0,-1.14 0.89,-1.74 1.85,-1.74 1.29,0 2.73,1.1 2.73,2.99 0,2.29 -2.3,3.43 -4.33,3.43 -1.7,0 -4.84,-0.89 -6.33,-5.82 -0.29,-1.05 -0.45,-1.55 -1.64,-7.83 h -3.43 c -0.96,0 -1.5,0 -1.5,-0.94 0,-0.61 0.45,-0.61 1.39,-0.61 h 3.29 l -3.75,-19.67 c -0.89,-4.83 -1.73,-9.38 -4.33,-9.38 -0.2,0 -1.43,0 -2.39,0.91 2.3,0.14 2.74,1.94 2.74,2.69 0,1.14 -0.89,1.75 -1.85,1.75 -1.29,0 -2.73,-1.1 -2.73,-3 0,-2.24 2.19,-3.44 4.23,-3.44 2.74,0 4.74,2.94 5.63,4.84 1.59,3.14 2.75,9.16 2.8,9.52 z"
           inkscape:connector-curvature="0"
           style="fill:#000000;stroke-width:0" /><path
           id="path3895"
           d="m 501.77,394.25 0,0.02 -0.01,0.03 0,0.01 0,0.02 0,0.01 -0.01,0.02 0,0.01 -0.01,0.02 -0.01,0.02 -0.01,0.02 -0.01,0.02 -0.01,0.03 -0.02,0.02 -0.02,0.03 -0.02,0.03 -0.02,0.03 -0.03,0.03 -0.03,0.04 -0.02,0.02 -0.01,0.02 -0.02,0.02 -0.02,0.02 -0.02,0.02 -0.02,0.03 -0.02,0.02 -0.02,0.02 -0.02,0.03 -0.03,0.02 -0.02,0.03 -0.03,0.03 -0.02,0.03 -0.03,0.03 -0.03,0.03 -0.03,0.03 -0.03,0.03 -0.03,0.03 -0.04,0.04 -0.03,0.03 -0.03,0.04 -0.04,0.03 -0.04,0.04 -0.04,0.04 c -6.22,6.28 -7.81,15.69 -7.81,23.31 0,8.67 1.89,17.35 8.01,23.56 0.65,0.61 0.65,0.71 0.65,0.86 0,0.35 -0.19,0.49 -0.49,0.49 -0.5,0 -4.98,-3.38 -7.92,-9.7 -2.55,-5.49 -3.14,-11.02 -3.14,-15.21 0,-3.89 0.55,-9.9 3.28,-15.54 2.98,-6.13 7.28,-9.36 7.78,-9.36 0.3,0 0.49,0.14 0.49,0.5 z"
           inkscape:connector-curvature="0"
           style="fill:#000000;stroke-width:0" /><path
           id="path3897"
           d="m 521.24,421.25 0.03,0.13 0.03,0.15 0.05,0.16 0.04,0.18 0.05,0.19 0.06,0.21 0.07,0.22 0.07,0.22 0.08,0.23 0.09,0.24 0.09,0.25 0.11,0.24 0.11,0.25 0.12,0.25 0.13,0.25 0.14,0.25 0.14,0.24 0.16,0.24 0.17,0.23 0.17,0.22 0.19,0.22 0.2,0.2 0.21,0.19 0.22,0.18 0.23,0.16 0.25,0.14 0.12,0.07 0.13,0.06 0.14,0.05 0.13,0.05 0.14,0.05 0.14,0.04 0.15,0.03 0.15,0.03 0.15,0.02 0.15,0.02 0.16,0.01 0.17,0 c 0.25,0 1.43,0 2.48,-0.64 -1.39,-0.25 -2.39,-1.5 -2.39,-2.69 0,-0.79 0.55,-1.75 1.89,-1.75 1.09,0 2.69,0.89 2.69,2.89 0,2.6 -2.94,3.28 -4.63,3.28 -2.89,0 -4.64,-2.64 -5.23,-3.78 -1.25,3.28 -3.94,3.78 -5.38,3.78 -5.18,0 -8.03,-6.42 -8.03,-7.67 0,-0.5 0.5,-0.5 0.61,-0.5 0.39,0 0.55,0.11 0.64,0.55 1.69,5.28 4.99,6.53 6.67,6.53 0.96,0 2.69,-0.44 2.69,-3.33 0,-1.54 -0.84,-4.89 -2.69,-11.86 -0.79,-3.09 -2.53,-5.18 -4.73,-5.18 -0.3,0 -1.44,0 -2.48,0.65 1.25,0.24 2.34,1.28 2.34,2.69 0,1.34 -1.09,1.73 -1.84,1.73 -1.5,0 -2.75,-1.29 -2.75,-2.89 0,-2.28 2.5,-3.28 4.68,-3.28 3.3,0 5.08,3.49 5.24,3.78 0.59,-1.84 2.39,-3.78 5.37,-3.78 5.14,0 7.99,6.42 7.99,7.67 0,0.5 -0.46,0.5 -0.61,0.5 -0.44,0 -0.55,-0.2 -0.64,-0.54 -1.64,-5.33 -5.04,-6.53 -6.63,-6.53 -1.95,0 -2.75,1.59 -2.75,3.29 0,1.1 0.3,2.19 0.86,4.38 z"
           inkscape:connector-curvature="0"
           style="fill:#000000;stroke-width:0" /><path
           id="path3899"
           d="m 547.43,418.65 -0.01,0.37 0,0.39 -0.01,0.39 -0.01,0.41 -0.04,0.84 -0.06,0.88 -0.08,0.92 -0.11,0.95 -0.14,0.97 -0.16,1.01 -0.2,1.02 -0.23,1.03 -0.26,1.05 -0.31,1.06 -0.35,1.07 -0.39,1.07 -0.21,0.53 -0.23,0.53 -0.24,0.53 -0.24,0.53 c -2.99,6.12 -7.27,9.36 -7.77,9.36 -0.3,0 -0.5,-0.19 -0.5,-0.49 0,-0.15 0,-0.25 0.94,-1.15 4.89,-4.92 7.73,-12.85 7.73,-23.27 0,-8.51 -1.84,-17.28 -8.03,-23.56 -0.64,-0.59 -0.64,-0.7 -0.64,-0.84 0,-0.3 0.2,-0.5 0.5,-0.5 0.5,0 4.97,3.39 7.92,9.71 2.53,5.47 3.13,11 3.13,15.19 z"
           inkscape:connector-curvature="0"
           style="fill:#000000;stroke-width:0" /></g>    </g>
    <g
       transform="translate(-552.00376,-167.48227)"
       id="g3947">
      <g
         style="font-style:normal;font-variant:normal;font-weight:normal;font-stretch:normal;letter-spacing:normal;word-spacing:normal;text-anchor:start;fill:none;stroke:#000000;stroke-linecap:butt;stroke-linejoin:miter;stroke-miterlimit:10.43299961;stroke-opacity:1;stroke-dasharray:none;stroke-dashoffset:0"
         id="g3949"
         transform="matrix(1.0629921,0,0,-1.0629921,-186.02362,789.27165)"
         xml:space="preserve"
         stroke-miterlimit="10.433"
         font-style="normal"
         font-variant="normal"
         font-weight="normal"
         font-stretch="normal"
         font-size-adjust="none"
         letter-spacing="normal"
         word-spacing="normal"><path
           style="fill:#000000;stroke-width:0"
           inkscape:connector-curvature="0"
           d="m 473.8,426.12 h 4.28 c 1,0 1.5,0 1.5,1 0,0.55 -0.5,0.55 -1.34,0.55 h -4.14 l 1.04,5.69 c 0.21,1.04 0.91,4.57 1.21,5.17 0.45,0.95 1.29,1.7 2.34,1.7 0.19,0 1.49,0 2.44,-0.91 -2.19,-0.18 -2.69,-1.93 -2.69,-2.68 0,-1.14 0.89,-1.74 1.85,-1.74 1.29,0 2.73,1.1 2.73,2.99 0,2.29 -2.3,3.43 -4.33,3.43 -1.7,0 -4.84,-0.89 -6.33,-5.82 -0.29,-1.05 -0.45,-1.55 -1.64,-7.83 h -3.43 c -0.96,0 -1.5,0 -1.5,-0.94 0,-0.61 0.45,-0.61 1.39,-0.61 h 3.29 l -3.75,-19.67 c -0.89,-4.83 -1.73,-9.38 -4.33,-9.38 -0.2,0 -1.43,0 -2.39,0.91 2.3,0.14 2.74,1.94 2.74,2.69 0,1.14 -0.89,1.75 -1.85,1.75 -1.29,0 -2.73,-1.1 -2.73,-3 0,-2.24 2.19,-3.44 4.23,-3.44 2.74,0 4.74,2.94 5.63,4.84 1.59,3.14 2.75,9.16 2.8,9.52 z"
           id="path3951" /><path
           style="fill:#000000;stroke-width:0"
           inkscape:connector-curvature="0"
           d="m 501.77,394.25 0,0.02 -0.01,0.03 0,0.01 0,0.02 0,0.01 -0.01,0.02 0,0.01 -0.01,0.02 -0.01,0.02 -0.01,0.02 -0.01,0.02 -0.01,0.03 -0.02,0.02 -0.02,0.03 -0.02,0.03 -0.02,0.03 -0.03,0.03 -0.03,0.04 -0.02,0.02 -0.01,0.02 -0.02,0.02 -0.02,0.02 -0.02,0.02 -0.02,0.03 -0.02,0.02 -0.02,0.02 -0.02,0.03 -0.03,0.02 -0.02,0.03 -0.03,0.03 -0.02,0.03 -0.03,0.03 -0.03,0.03 -0.03,0.03 -0.03,0.03 -0.03,0.03 -0.04,0.04 -0.03,0.03 -0.03,0.04 -0.04,0.03 -0.04,0.04 -0.04,0.04 c -6.22,6.28 -7.81,15.69 -7.81,23.31 0,8.67 1.89,17.35 8.01,23.56 0.65,0.61 0.65,0.71 0.65,0.86 0,0.35 -0.19,0.49 -0.49,0.49 -0.5,0 -4.98,-3.38 -7.92,-9.7 -2.55,-5.49 -3.14,-11.02 -3.14,-15.21 0,-3.89 0.55,-9.9 3.28,-15.54 2.98,-6.13 7.28,-9.36 7.78,-9.36 0.3,0 0.49,0.14 0.49,0.5 z"
           id="path3953" /><path
           style="fill:#000000;stroke-width:0"
           inkscape:connector-curvature="0"
           d="m 521.24,421.25 0.03,0.13 0.03,0.15 0.05,0.16 0.04,0.18 0.05,0.19 0.06,0.21 0.07,0.22 0.07,0.22 0.08,0.23 0.09,0.24 0.09,0.25 0.11,0.24 0.11,0.25 0.12,0.25 0.13,0.25 0.14,0.25 0.14,0.24 0.16,0.24 0.17,0.23 0.17,0.22 0.19,0.22 0.2,0.2 0.21,0.19 0.22,0.18 0.23,0.16 0.25,0.14 0.12,0.07 0.13,0.06 0.14,0.05 0.13,0.05 0.14,0.05 0.14,0.04 0.15,0.03 0.15,0.03 0.15,0.02 0.15,0.02 0.16,0.01 0.17,0 c 0.25,0 1.43,0 2.48,-0.64 -1.39,-0.25 -2.39,-1.5 -2.39,-2.69 0,-0.79 0.55,-1.75 1.89,-1.75 1.09,0 2.69,0.89 2.69,2.89 0,2.6 -2.94,3.28 -4.63,3.28 -2.89,0 -4.64,-2.64 -5.23,-3.78 -1.25,3.28 -3.94,3.78 -5.38,3.78 -5.18,0 -8.03,-6.42 -8.03,-7.67 0,-0.5 0.5,-0.5 0.61,-0.5 0.39,0 0.55,0.11 0.64,0.55 1.69,5.28 4.99,6.53 6.67,6.53 0.96,0 2.69,-0.44 2.69,-3.33 0,-1.54 -0.84,-4.89 -2.69,-11.86 -0.79,-3.09 -2.53,-5.18 -4.73,-5.18 -0.3,0 -1.44,0 -2.48,0.65 1.25,0.24 2.34,1.28 2.34,2.69 0,1.34 -1.09,1.73 -1.84,1.73 -1.5,0 -2.75,-1.29 -2.75,-2.89 0,-2.28 2.5,-3.28 4.68,-3.28 3.3,0 5.08,3.49 5.24,3.78 0.59,-1.84 2.39,-3.78 5.37,-3.78 5.14,0 7.99,6.42 7.99,7.67 0,0.5 -0.46,0.5 -0.61,0.5 -0.44,0 -0.55,-0.2 -0.64,-0.54 -1.64,-5.33 -5.04,-6.53 -6.63,-6.53 -1.95,0 -2.75,1.59 -2.75,3.29 0,1.1 0.3,2.19 0.86,4.38 z"
           id="path3955" /><path
           style="fill:#000000;stroke-width:0"
           inkscape:connector-curvature="0"
           d="m 564.57,417.65 h 13.9 c 0.69,0 1.64,0 1.64,1 0,1 -0.95,1 -1.64,1 h -13.9 v 13.96 c 0,0.68 0,1.64 -1,1.64 -0.99,0 -0.99,-0.96 -0.99,-1.64 v -13.96 h -13.95 c -0.7,0 -1.64,0 -1.64,-1 0,-1 0.94,-1 1.64,-1 h 13.95 v -13.94 c 0,-0.7 0,-1.65 0.99,-1.65 1,0 1,0.95 1,1.65 z"
           id="path3957" /><path
           style="fill:#000000;stroke-width:0"
           inkscape:connector-curvature="0"
           d="m 616.01,440.98 -0.03,0.06 -0.03,0.06 -0.03,0.05 -0.03,0.05 -0.03,0.05 -0.03,0.05 -0.02,0.05 -0.03,0.04 -0.03,0.04 -0.02,0.04 -0.03,0.04 -0.03,0.03 -0.03,0.04 -0.02,0.03 -0.04,0.03 -0.03,0.03 -0.03,0.02 -0.04,0.03 -0.03,0.02 -0.04,0.02 -0.04,0.02 -0.05,0.01 -0.04,0.02 -0.05,0.01 -0.05,0.01 -0.06,0.01 -0.06,0.01 -0.06,0.01 -0.07,0 -0.07,0.01 -0.07,0 -0.08,0 c -0.84,0 -0.94,-0.25 -1.28,-0.89 l -0.31,-4.09 13.4,-26.91 h -26.86 l 13.46,26.91 0.31,4.09 -16.84,-33.78 c -0.25,-0.45 -0.25,-0.55 -0.25,-0.59 0,-0.41 0.29,-0.41 1.09,-0.41 h 34.58 c 0.79,0 1.09,0 1.09,0.41 0,0.04 0,0.14 -0.25,0.59 z"
           id="path3959" /><path
           style="fill:#000000;stroke-width:0"
           inkscape:connector-curvature="0"
           d="m 652.15,421.25 0.03,0.13 0.04,0.15 0.04,0.16 0.05,0.18 0.05,0.19 0.06,0.21 0.06,0.22 0.08,0.22 0.08,0.23 0.08,0.24 0.1,0.25 0.1,0.24 0.11,0.25 0.12,0.25 0.13,0.25 0.14,0.25 0.15,0.24 0.15,0.24 0.17,0.23 0.18,0.22 0.19,0.22 0.19,0.2 0.21,0.19 0.22,0.18 0.24,0.16 0.24,0.14 0.13,0.07 0.13,0.06 0.13,0.05 0.14,0.05 0.13,0.05 0.15,0.04 0.14,0.03 0.15,0.03 0.15,0.02 0.16,0.02 0.16,0.01 0.16,0 c 0.25,0 1.44,0 2.48,-0.64 -1.39,-0.25 -2.39,-1.5 -2.39,-2.69 0,-0.79 0.55,-1.75 1.89,-1.75 1.1,0 2.69,0.89 2.69,2.89 0,2.6 -2.94,3.28 -4.62,3.28 -2.89,0 -4.64,-2.64 -5.24,-3.78 -1.25,3.28 -3.93,3.78 -5.37,3.78 -5.19,0 -8.03,-6.42 -8.03,-7.67 0,-0.5 0.5,-0.5 0.6,-0.5 0.4,0 0.55,0.11 0.65,0.55 1.68,5.28 4.98,6.53 6.67,6.53 0.95,0 2.68,-0.44 2.68,-3.33 0,-1.54 -0.84,-4.89 -2.68,-11.86 -0.8,-3.09 -2.53,-5.18 -4.74,-5.18 -0.29,0 -1.43,0 -2.48,0.65 1.25,0.24 2.34,1.28 2.34,2.69 0,1.34 -1.09,1.73 -1.84,1.73 -1.5,0 -2.75,-1.29 -2.75,-2.89 0,-2.28 2.5,-3.28 4.69,-3.28 3.29,0 5.08,3.49 5.23,3.78 0.6,-1.84 2.39,-3.78 5.38,-3.78 5.14,0 7.98,6.42 7.98,7.67 0,0.5 -0.45,0.5 -0.61,0.5 -0.44,0 -0.55,-0.2 -0.64,-0.54 -1.64,-5.33 -5.03,-6.53 -6.63,-6.53 -1.95,0 -2.75,1.59 -2.75,3.29 0,1.1 0.3,2.19 0.87,4.38 z"
           id="path3961" /><path
           style="fill:#000000;stroke-width:0"
           inkscape:connector-curvature="0"
           d="m 678.34,418.65 0,0.37 -0.01,0.39 -0.01,0.39 -0.01,0.41 -0.04,0.84 -0.06,0.88 -0.08,0.92 -0.11,0.95 -0.13,0.97 -0.17,1.01 -0.19,1.02 -0.23,1.03 -0.27,1.05 -0.3,1.06 -0.35,1.07 -0.4,1.07 -0.21,0.53 -0.22,0.53 -0.24,0.53 -0.25,0.53 c -2.99,6.12 -7.27,9.36 -7.77,9.36 -0.29,0 -0.5,-0.19 -0.5,-0.49 0,-0.15 0,-0.25 0.94,-1.15 4.89,-4.92 7.74,-12.85 7.74,-23.27 0,-8.51 -1.85,-17.28 -8.04,-23.56 -0.64,-0.59 -0.64,-0.7 -0.64,-0.84 0,-0.3 0.21,-0.5 0.5,-0.5 0.5,0 4.97,3.39 7.93,9.71 2.53,5.47 3.12,11 3.12,15.19 z"
           id="path3963" /></g>    </g>
    <path
       transform="matrix(1.3535534,0,0,1.0271964,27.872032,-25.601962)"
       d="m 226.27417,647.79608 a 4.5456862,6.5659914 0 1 1 -9.09137,0 4.5456862,6.5659914 0 1 1 9.09137,0 z"
       sodipodi:ry="6.5659914"
       sodipodi:rx="4.5456862"
       sodipodi:cy="647.79608"
       sodipodi:cx="221.72849"
       id="path4456"
       style="fill:#000000;fill-opacity:1;stroke-width:5;stroke-miterlimit:4;stroke-dasharray:none"
       sodipodi:type="arc" />
    <path
       transform="matrix(1.1546472,0,0,0.8096251,327.35972,-342.36654)"
       d="m 226.27417,647.79608 a 4.5456862,6.5659914 0 1 1 -9.09137,0 4.5456862,6.5659914 0 1 1 9.09137,0 z"
       sodipodi:ry="6.5659914"
       sodipodi:rx="4.5456862"
       sodipodi:cy="647.79608"
       sodipodi:cx="221.72849"
       id="path4456-6"
       style="fill:#000000;fill-opacity:1;stroke-width:5;stroke-miterlimit:4;stroke-dasharray:none"
       sodipodi:type="arc" />
    <g
       transform="translate(14.081221,491.03566)"
       id="g5073">
      <g
         style="font-style:normal;font-variant:normal;font-weight:normal;font-stretch:normal;letter-spacing:normal;word-spacing:normal;text-anchor:start;fill:none;stroke:#000000;stroke-linecap:butt;stroke-linejoin:miter;stroke-miterlimit:10.43299961;stroke-opacity:1;stroke-dasharray:none;stroke-dashoffset:0"
         word-spacing="normal"
         letter-spacing="normal"
         font-size-adjust="none"
         font-stretch="normal"
         font-weight="normal"
         font-variant="normal"
         font-style="normal"
         stroke-miterlimit="10.433"
         xml:space="preserve"
         transform="matrix(1.0629921,0,0,-1.0629921,-186.02362,789.27165)"
         id="g5075"><path
           style="fill:#000000;stroke-width:0"
           inkscape:connector-curvature="0"
           id="path5077"
           d="m 472.16,421.25 0.03,0.13 0.04,0.15 0.04,0.16 0.04,0.18 0.06,0.19 0.06,0.21 0.06,0.22 0.07,0.22 0.08,0.23 0.09,0.24 0.1,0.25 0.1,0.24 0.11,0.25 0.12,0.25 0.13,0.25 0.14,0.25 0.15,0.24 0.15,0.24 0.17,0.23 0.18,0.22 0.18,0.22 0.2,0.2 0.21,0.19 0.22,0.18 0.23,0.16 0.25,0.14 0.12,0.07 0.13,0.06 0.14,0.05 0.13,0.05 0.14,0.05 0.14,0.04 0.15,0.03 0.15,0.03 0.15,0.02 0.16,0.02 0.16,0.01 0.16,0 c 0.25,0 1.44,0 2.48,-0.64 -1.39,-0.25 -2.39,-1.5 -2.39,-2.69 0,-0.79 0.55,-1.75 1.89,-1.75 1.1,0 2.69,0.89 2.69,2.89 0,2.6 -2.94,3.28 -4.63,3.28 -2.89,0 -4.64,-2.64 -5.23,-3.78 -1.25,3.28 -3.94,3.78 -5.37,3.78 -5.19,0 -8.04,-6.42 -8.04,-7.67 0,-0.5 0.5,-0.5 0.61,-0.5 0.39,0 0.55,0.11 0.64,0.55 1.69,5.28 4.99,6.53 6.68,6.53 0.95,0 2.68,-0.44 2.68,-3.33 0,-1.54 -0.84,-4.89 -2.68,-11.86 -0.8,-3.09 -2.54,-5.18 -4.74,-5.18 -0.3,0 -1.44,0 -2.48,0.65 1.25,0.24 2.34,1.28 2.34,2.69 0,1.34 -1.09,1.73 -1.84,1.73 -1.5,0 -2.75,-1.29 -2.75,-2.89 0,-2.28 2.5,-3.28 4.68,-3.28 3.3,0 5.08,3.49 5.24,3.78 0.59,-1.84 2.39,-3.78 5.37,-3.78 5.14,0 7.99,6.42 7.99,7.67 0,0.5 -0.45,0.5 -0.61,0.5 -0.44,0 -0.55,-0.2 -0.64,-0.54 -1.64,-5.33 -5.03,-6.53 -6.63,-6.53 -1.95,0 -2.75,1.59 -2.75,3.29 0,1.1 0.3,2.19 0.86,4.38 z" /></g>    </g>
    <path
       inkscape:connector-curvature="0"
       id="path5409"
       d="m 326.27927,640.21994 c -340.421406,-2.0203 -341.431558,-2.0203 -341.431558,-2.0203"
       style="fill:none;stroke:#000000;stroke-width:1px;stroke-linecap:butt;stroke-linejoin:miter;stroke-opacity:1" />
    <path
       inkscape:connector-curvature="0"
       id="path5411"
       d="m 585.88848,179.59038 c -6.06092,3.03046 -598.010311,0 -598.010311,0"
       style="fill:none;stroke:#000000;stroke-width:1px;stroke-linecap:butt;stroke-linejoin:miter;stroke-opacity:1" />
    <path
       inkscape:connector-curvature="0"
       id="path5413"
       d="m 582.85802,178.58023 -1.01015,631.34534"
       style="fill:none;stroke:#000000;stroke-width:1px;stroke-linecap:butt;stroke-linejoin:miter;stroke-opacity:1" />
    <path
       inkscape:connector-curvature="0"
       id="path5415"
       d="m 326.27927,643.2504 2.02031,171.72593"
       style="fill:none;stroke:#000000;stroke-width:1px;stroke-linecap:butt;stroke-linejoin:miter;stroke-opacity:1" />
    <path
       style="fill:none;stroke:#000000;stroke-width:1px;stroke-linecap:butt;stroke-linejoin:miter;stroke-opacity:1"
       d="M 149.44299,892.37183 642.51661,200.33193"
       id="path3773-5"
       inkscape:connector-curvature="0" />
    <path
       style="fill:none;stroke:#000000;stroke-width:1px;stroke-linecap:butt;stroke-linejoin:miter;stroke-opacity:1"
       d="M 105.24838,867.98117 704.6605,265.69723"
       id="path3773-56"
       inkscape:connector-curvature="0" />
    <path
       style="fill:none;stroke:#000000;stroke-width:1px;stroke-linecap:butt;stroke-linejoin:miter;stroke-opacity:1"
       d="M 38.357309,826.11604 758.63793,375.2983"
       id="path3773-57"
       inkscape:connector-curvature="0" />
    <path
       style="fill:none;stroke:#000000;stroke-width:1px;stroke-linecap:butt;stroke-linejoin:miter;stroke-opacity:1"
       d="M -29.654816,727.59429 797.37074,532.48013"
       id="path3773-2"
       inkscape:connector-curvature="0" />
    <path
       inkscape:connector-curvature="0"
       id="path5413-0"
       d="m 566.10856,314.27826 -1.08993,495.49392"
       style="fill:none;stroke:#000000;stroke-width:0.92022061px;stroke-linecap:butt;stroke-linejoin:miter;stroke-opacity:1" />
    <path
       inkscape:connector-curvature="0"
       id="path5413-0-4"
       d="m 527.83108,445.84076 -1.18475,366.75838"
       style="fill:none;stroke:#000000;stroke-width:0.82541764px;stroke-linecap:butt;stroke-linejoin:miter;stroke-opacity:1" />
    <path
       inkscape:connector-curvature="0"
       id="path5413-0-6"
       d="m 445.52435,566.87847 -1.30227,245.39147"
       style="fill:none;stroke:#000000;stroke-width:0.70787251px;stroke-linecap:butt;stroke-linejoin:miter;stroke-opacity:1" />
    <path
       transform="matrix(1.1546472,0,0,0.8096251,309.55325,-216.68121)"
       d="m 226.27417,647.79608 a 4.5456862,6.5659914 0 1 1 -9.09137,0 4.5456862,6.5659914 0 1 1 9.09137,0 z"
       sodipodi:ry="6.5659914"
       sodipodi:rx="4.5456862"
       sodipodi:cy="647.79608"
       sodipodi:cx="221.72849"
       id="path4456-6-7"
       style="fill:#000000;fill-opacity:1;stroke-width:5;stroke-miterlimit:4;stroke-dasharray:none"
       sodipodi:type="arc" />
    <path
       transform="matrix(1.1546472,0,0,0.8096251,271.83897,-81.824067)"
       d="m 226.27417,647.79608 a 4.5456862,6.5659914 0 1 1 -9.09137,0 4.5456862,6.5659914 0 1 1 9.09137,0 z"
       sodipodi:ry="6.5659914"
       sodipodi:rx="4.5456862"
       sodipodi:cy="647.79608"
       sodipodi:cx="221.72849"
       id="path4456-6-7-5"
       style="fill:#000000;fill-opacity:1;stroke-width:5;stroke-miterlimit:4;stroke-dasharray:none"
       sodipodi:type="arc" />
    <path
       transform="matrix(1.1546472,0,0,0.8096251,188.98182,47.747361)"
       d="m 226.27417,647.79608 a 4.5456862,6.5659914 0 1 1 -9.09137,0 4.5456862,6.5659914 0 1 1 9.09137,0 z"
       sodipodi:ry="6.5659914"
       sodipodi:rx="4.5456862"
       sodipodi:cy="647.79608"
       sodipodi:cx="221.72849"
       id="path4456-6-7-5-8"
       style="fill:#000000;fill-opacity:1;stroke-width:5;stroke-miterlimit:4;stroke-dasharray:none"
       sodipodi:type="arc" />
    <path
       inkscape:connector-curvature="0"
       d="m 671.72645,179.78093 c 3.66793,1.52319 7.07464,3.56764 10.46686,5.6103 2.77278,1.61824 5.19128,3.69554 7.70309,5.66562 2.04354,1.93725 4.28479,3.64138 6.57249,5.27562 2.25504,1.99103 4.44437,4.0479 6.67354,6.06561 2.5046,2.04339 4.71317,4.38512 6.98207,6.67208 2.09978,2.15595 4.12808,4.38898 6.10572,6.66121 2.28898,2.64679 4.71971,5.16514 7.16034,7.67102 2.34212,2.27283 4.71382,4.53864 7.20186,6.6533 2.18825,1.7897 4.16693,3.80656 6.24865,5.72021 2.49244,2.23997 4.51545,4.93299 6.4569,7.64717 2.01838,2.88497 3.96346,5.7979 6.20334,8.52104 2.1021,2.76771 4.04376,5.66101 5.88004,8.61132 1.83679,2.75644 3.23797,5.76438 4.98426,8.57417 1.64242,2.93146 3.6052,5.66075 5.27185,8.57798 1.72098,2.9542 3.84073,5.6409 5.61002,8.56599 1.84676,2.4885 3.68683,4.98643 5.67002,7.37085 2.10314,2.7009 3.99336,5.5509 6.00037,8.32075 1.7538,2.80141 3.28417,5.73863 4.95385,8.59385 1.80079,2.75478 3.30586,5.69074 4.87649,8.58174 1.24678,3.05375 3.08066,5.79737 4.86076,8.55619 1.64627,2.80798 3.33588,5.59706 4.58513,8.60884 1.35223,2.72908 2.06842,5.69207 2.93887,8.59387 0.83441,2.8566 1.76183,5.65624 2.26468,8.59743 0.79423,2.81756 1.34138,5.67623 1.64255,8.58574 0.70224,2.81735 0.97688,5.71924 1.59954,8.54773 0.83878,2.79878 0.96738,5.72833 1.52355,8.57651 0.49761,2.90935 1.49326,5.68675 2.12141,8.56597 0.5483,2.87487 1.32973,5.68392 1.7441,8.58718 0.34882,2.85271 0.38108,5.73011 0.40798,8.59996 0.40667,2.85192 0.9037,5.68267 1.16813,8.55368 0.22397,2.85752 0.24216,5.7254 0.25847,8.58996 0.008,2.85762 0.001,5.71526 -0.002,8.57288 0.07,2.84865 -0.17766,5.7131 0.16657,8.54572 0.0785,0.473 0.15708,0.94601 0.23562,1.41901 0,0 -4.28514,0.0701 -4.28514,0.0701 l 0,0 c -0.0786,-0.47938 -0.15726,-0.95876 -0.23589,-1.43814 -0.33492,-2.85127 -0.10396,-5.73061 -0.16687,-8.59714 0.003,-2.85666 0.01,-5.71332 0.002,-8.56997 -0.0163,-2.85221 -0.034,-5.70779 -0.25829,-8.5529 -0.26746,-2.88249 -0.77765,-5.72327 -1.16831,-8.58917 -0.0268,-2.85083 -0.0579,-5.70939 -0.40755,-8.5429 -0.41724,-2.89161 -1.201,-5.69029 -1.74353,-8.55568 -0.6359,-2.88016 -1.62892,-5.66332 -2.12164,-8.57688 -0.54283,-2.84773 -0.69334,-5.76925 -1.52334,-8.56636 -0.61243,-2.84694 -0.91465,-5.75858 -1.60029,-8.59513 -0.3032,-2.90022 -0.865,-5.74512 -1.64216,-8.55711 -0.50654,-2.92213 -1.44014,-5.70389 -2.26348,-8.54543 -0.86878,-2.88786 -1.58855,-5.83337 -2.93732,-8.54897 -1.26074,-2.98071 -2.93656,-5.75252 -4.58151,-8.53392 -1.77818,-2.77211 -3.59807,-5.53069 -4.86241,-8.58715 -1.57872,-2.88308 -3.07244,-5.81905 -4.87587,-8.56959 -1.65501,-2.84866 -3.18017,-5.77641 -4.95143,-8.55206 -1.99307,-2.76975 -3.88976,-5.60621 -5.99851,-8.2924 -1.98324,-2.40499 -3.84763,-4.90888 -5.67385,-7.43267 -1.78877,-2.91527 -3.90181,-5.61215 -5.6106,-8.57681 -1.68071,-2.90352 -3.62562,-5.64011 -5.27113,-8.56465 -1.72824,-2.81891 -3.14768,-5.81635 -4.98411,-8.57146 -1.8438,-2.92758 -3.7597,-5.81889 -5.87666,-8.55715 -2.23119,-2.73829 -4.1722,-5.66533 -6.20514,-8.5485 -1.93299,-2.69241 -3.96536,-5.34587 -6.45052,-7.55928 -2.07804,-1.91043 -4.0549,-3.92707 -6.24748,-5.70637 -2.46835,-2.1538 -4.88357,-4.38077 -7.20494,-6.69093 -2.44252,-2.51258 -4.87211,-5.04022 -7.16207,-7.69422 -1.9783,-2.26171 -4.00005,-4.49249 -6.10377,-6.63521 -2.25151,-2.29809 -4.50159,-4.5877 -6.98026,-6.6496 -2.20295,-2.02811 -4.40143,-4.05888 -6.66902,-6.01493 -2.28933,-1.64146 -4.50201,-3.38486 -6.57442,-5.29642 -2.48403,-1.98699 -4.94422,-3.99222 -7.69785,-5.61141 -3.38459,-2.04578 -6.81644,-4.02531 -10.46323,-5.57656 0,0 4.25947,-0.47352 4.25947,-0.47352 z"
       id="path3223"
       style="fill:#000000;fill-opacity:1;stroke-width:1;stroke-miterlimit:4;stroke-dasharray:2, 1;stroke-dashoffset:0" />
    <path
       inkscape:connector-curvature="0"
       d="m 802.98866,424.28253 c 2.96248,2.62654 5.778,5.40693 8.74057,8.04214 2.41999,2.42036 4.87382,4.84214 7.54533,6.98627 1.8763,1.59694 3.51656,3.44643 5.04393,5.37311 0,0 -4.27591,0.28967 -4.27591,0.28967 l 0,0 c -1.53661,-1.89003 -3.15379,-3.72654 -5.03684,-5.28259 -2.64962,-2.18086 -5.11351,-4.58818 -7.54698,-7.00534 -2.95662,-2.6322 -5.75061,-5.4302 -8.73862,-8.01975 0,0 4.26852,-0.38351 4.26852,-0.38351 z"
       id="path3225"
       style="fill:#000000;fill-opacity:1;stroke-width:1;stroke-miterlimit:4;stroke-dasharray:2, 1;stroke-dashoffset:0" />
    <path
       inkscape:connector-curvature="0"
       d="m 833.05648,410.62965 c -1.93557,3.49693 -3.67777,7.11633 -5.10662,10.85038 -1.05921,2.98723 -1.28062,6.15664 -1.91571,9.24249 -0.29833,2.64903 -1.23367,5.14065 -1.82578,7.72392 -0.60943,1.82491 -1.19093,3.61197 -2.21872,5.24514 0,0 -4.27866,-0.2458 -4.27866,-0.2458 l 0,0 c 1.0472,-1.57579 1.59358,-3.31553 2.21274,-5.09516 0.58292,-2.58355 1.53178,-5.06745 1.82559,-7.71526 0.6422,-3.10769 0.86651,-6.29766 1.91766,-9.3111 1.41901,-3.75118 3.16156,-7.38845 5.10839,-10.89324 0,0 4.28111,0.19863 4.28111,0.19863 z"
       id="path3227"
       style="fill:#000000;fill-opacity:1;stroke-width:1;stroke-miterlimit:4;stroke-dasharray:2, 1;stroke-dashoffset:0" />
    <path
       inkscape:connector-curvature="0"
       id="path3229"
       d="m 581.42857,829.21933 c -177.14286,2.85714 -177.14286,2.85714 -177.14286,2.85714"
       style="fill:none;stroke:#000000;stroke-width:3;stroke-linecap:butt;stroke-linejoin:miter;stroke-miterlimit:4;stroke-opacity:1;stroke-dasharray:none;marker-end:url(#Arrow1Lend)" />
    <path
       inkscape:connector-curvature="0"
       d="m 323.09898,862.46719 c 2.14768,1.6372 4.6767,2.62213 7.10096,3.76612 2.44133,1.08539 5.09904,1.30709 7.73136,1.45339 1.40337,0.0585 2.80807,0.0723 4.21246,0.0784 0.4741,0.002 1.89642,0.002 1.42232,0.002 -5.15504,0.002 -2.78913,-0.002 -1.37798,-0.005 2.85979,-0.01 5.71959,-0.0154 8.5794,-0.0187 3.14457,-0.003 6.28915,-0.003 9.43372,-0.003 4.5674,-0.51817 8.89603,0.2474 13.35813,0.89148 2.84813,0.38959 5.72387,0.47072 8.59403,0.52251 -1.90213,0.0464 7.61075,0.0259 5.70805,0.025 -2.91211,-10e-4 -3.92812,2.9e-4 -1.37716,-0.002 2.85686,-0.004 5.71373,-0.006 8.5706,-0.007 2.99275,-9.5e-4 5.9855,-9.1e-4 8.97826,-9.4e-4 4.57793,-2e-5 9.15586,4e-5 13.73379,6e-5 2.89132,1e-5 5.78264,1e-5 8.67396,1e-5 -4.64926,10e-6 8.93273,0 4.28158,0 -0.93532,0 -1.87063,0 -2.80594,0 -0.47576,0 0.9517,-0.0137 1.42726,0 1.83176,0.0528 3.66263,0.13302 5.49395,0.19952 2.55066,0.48272 5.04722,1.26701 7.47839,2.17357 2.73204,1.1418 5.15405,2.80357 7.37783,4.74079 1.38613,1.06615 2.6261,2.34446 4.37023,2.78785 0.40827,0.10379 1.66614,0.18376 1.24584,0.21207 -1.03411,0.0696 -2.0721,-0.0578 -3.10815,-0.0866 2.76436,-0.82907 5.03017,-2.94363 7.26456,-4.71561 2.64531,-1.99163 5.41018,-3.82503 8.42005,-5.21413 2.72967,-1.14127 5.67256,-1.37508 8.59258,-1.50935 2.68725,0.0917 5.29201,-0.12831 7.92286,-0.64433 2.58239,-0.52312 5.2159,-0.65836 7.84208,-0.74848 4.24877,-0.0919 8.4996,-0.0619 12.74898,-0.0613 2.85978,0.004 5.71955,0.006 8.57933,0.008 2.85552,0.44313 5.69567,0.93149 8.57585,1.19078 2.85264,0.29626 5.73522,0.0393 8.57236,0.44228 2.8308,0.56485 5.69135,0.89922 8.5696,1.08325 2.85388,0.14642 5.71247,0.14698 8.56929,0.15217 0.47616,2e-5 1.90467,3.6e-4 1.4285,8e-5 -7.20847,-0.004 1.67631,-0.006 2.90987,-0.007 2.85715,-0.002 5.7143,-0.003 8.57145,-0.003 2.88544,0.0444 5.71507,-0.6496 8.56751,-1.00958 2.91836,-0.47964 5.72652,-1.38643 8.56715,-2.17645 2.21252,-0.75638 4.38571,-1.70437 5.95061,-3.48608 1.68984,-2.02243 2.24998,-4.51867 2.60578,-7.06022 0.27711,-1.21051 0.60455,-2.40745 0.89601,-3.61449 0,0 4.28452,0.10115 4.28452,0.10115 l 0,0 c -0.28616,1.19437 -0.60631,2.37873 -0.89523,3.57241 -0.35907,2.61155 -0.91911,5.19387 -2.61574,7.29912 -1.52401,1.91346 -3.71741,2.9124 -5.9766,3.74523 -2.85557,0.76885 -5.65696,1.71171 -8.5757,2.2382 -2.86146,0.33884 -5.69126,1.04794 -8.57535,1.0611 -2.85713,2.4e-4 -5.71427,5.7e-4 -8.5714,0.003 -4.26816,0.004 -8.53632,0.0114 -12.80449,0.006 -2.85842,-0.008 -5.71899,-0.0131 -8.57356,-0.17978 -2.87927,-0.20534 -5.73414,-0.58217 -8.57322,-1.10758 -2.8453,-0.31019 -5.72031,-0.12688 -8.57042,-0.42911 -2.87342,-0.28216 -5.70392,-0.82202 -8.56977,-1.15125 -2.85978,-0.002 -5.71956,-0.004 -8.57934,-0.008 7.62733,-0.002 -3.10555,-0.0147 -4.28093,0.0481 -2.62051,0.0763 -5.25062,0.18348 -7.83196,0.67953 -2.63881,0.52104 -5.22703,0.87375 -7.93234,0.70912 -2.90134,0.10764 -5.83317,0.28496 -8.57077,1.34746 -3.01969,1.32304 -5.76162,3.15318 -8.40911,5.10745 -2.28027,1.82675 -4.58193,3.86737 -7.29683,4.98104 -5.60616,0.0254 -7.0606,0.35307 -11.01383,-3.19326 -2.23695,-1.87344 -4.6269,-3.51987 -7.36181,-4.58778 -2.43657,-0.85933 -4.90904,-1.67495 -7.46631,-2.08314 0.99354,-0.0474 1.9901,-0.0516 2.98063,-0.14225 0.47377,-0.0434 -0.95151,0 -1.42726,0 -3.31385,0 -6.6277,0 -9.94154,0 -2.89132,0 -5.78264,-10e-6 -8.67396,-2e-5 -2.06331,-1e-5 -4.12663,-3e-5 -6.18994,-4e-5 -0.54739,0 -2.18954,0 -1.64216,-10e-6 0.85474,-1e-5 1.70947,0 2.56421,0 -2.99275,10e-6 -5.98549,-5e-5 -8.97824,7.7e-4 -2.85685,10e-4 -5.7137,0.003 -8.57055,0.007 -4.266,0.005 -8.5324,0.0225 -12.79818,-0.0306 -2.87401,-0.0619 -5.75296,-0.16245 -8.60202,-0.57582 -1.97001,-0.29333 -3.95646,-0.73463 -5.94954,-0.82977 -0.52041,-0.0248 -2.08399,-10e-6 -1.563,-2e-5 0.87654,-2e-5 1.75308,0 2.62962,0 -3.14455,6e-5 -6.2891,-1.4e-4 -9.43365,0.002 -2.85977,0.003 -5.71954,0.008 -8.5793,0.0181 -4.24181,0.0115 -8.48731,0.0656 -12.72689,-0.10067 -2.65268,-0.17699 -5.31605,-0.46588 -7.75291,-1.61594 -2.42191,-1.15962 -4.92106,-2.17792 -7.10192,-3.77461 0,0 4.25948,-0.47352 4.25948,-0.47352 z"
       id="path4189"
       style="fill:#000000;fill-opacity:1;stroke-width:3;stroke-miterlimit:4;stroke-dasharray:none;stroke-dashoffset:0" />
    <g
       id="g4250"
       transform="translate(80,568.57143)">
      <g
         word-spacing="normal"
         letter-spacing="normal"
         font-size-adjust="none"
         font-stretch="normal"
         font-weight="normal"
         font-variant="normal"
         font-style="normal"
         stroke-miterlimit="10.433"
         xml:space="preserve"
         transform="matrix(1.0629921,0,0,-1.0629921,-186.02362,789.27165)"
         id="g4252"
         style="font-style:normal;font-variant:normal;font-weight:normal;font-stretch:normal;letter-spacing:normal;word-spacing:normal;text-anchor:start;fill:none;stroke:#000000;stroke-linecap:butt;stroke-linejoin:miter;stroke-miterlimit:10.43299961;stroke-opacity:1;stroke-dasharray:none;stroke-dashoffset:0"><path
           id="path4254"
           d="m 477.54,440.98 -0.04,0.06 -0.03,0.06 -0.03,0.05 -0.02,0.05 -0.03,0.05 -0.03,0.05 -0.03,0.05 -0.02,0.04 -0.03,0.04 -0.03,0.04 -0.02,0.04 -0.03,0.03 -0.03,0.04 -0.03,0.03 -0.03,0.03 -0.03,0.03 -0.03,0.02 -0.04,0.03 -0.04,0.02 -0.03,0.02 -0.05,0.02 -0.04,0.01 -0.05,0.02 -0.04,0.01 -0.06,0.01 -0.05,0.01 -0.06,0.01 -0.06,0.01 -0.07,0 -0.07,0.01 -0.07,0 -0.04,0 -0.04,0 c -0.85,0 -0.94,-0.25 -1.28,-0.89 l -0.32,-4.09 13.41,-26.91 h -26.86 l 13.45,26.91 0.32,4.09 -16.85,-33.78 c -0.25,-0.45 -0.25,-0.55 -0.25,-0.59 0,-0.41 0.3,-0.41 1.1,-0.41 h 34.58 c 0.79,0 1.09,0 1.09,0.41 0,0.04 0,0.14 -0.25,0.59 z"
           inkscape:connector-curvature="0"
           style="fill:#000000;stroke-width:0" /><path
           id="path4256"
           d="m 513.68,421.25 0.03,0.13 0.04,0.15 0.04,0.16 0.04,0.18 0.06,0.19 0.06,0.21 0.06,0.22 0.07,0.22 0.08,0.23 0.09,0.24 0.1,0.25 0.1,0.24 0.11,0.25 0.12,0.25 0.13,0.25 0.14,0.25 0.14,0.24 0.16,0.24 0.17,0.23 0.18,0.22 0.18,0.22 0.2,0.2 0.21,0.19 0.22,0.18 0.23,0.16 0.25,0.14 0.12,0.07 0.13,0.06 0.14,0.05 0.13,0.05 0.14,0.05 0.14,0.04 0.15,0.03 0.15,0.03 0.15,0.02 0.16,0.02 0.15,0.01 0.17,0 c 0.25,0 1.43,0 2.48,-0.64 -1.39,-0.25 -2.39,-1.5 -2.39,-2.69 0,-0.79 0.55,-1.75 1.89,-1.75 1.1,0 2.69,0.89 2.69,2.89 0,2.6 -2.94,3.28 -4.63,3.28 -2.89,0 -4.64,-2.64 -5.23,-3.78 -1.25,3.28 -3.94,3.78 -5.38,3.78 -5.18,0 -8.03,-6.42 -8.03,-7.67 0,-0.5 0.5,-0.5 0.61,-0.5 0.39,0 0.55,0.11 0.64,0.55 1.69,5.28 4.99,6.53 6.68,6.53 0.95,0 2.68,-0.44 2.68,-3.33 0,-1.54 -0.84,-4.89 -2.68,-11.86 -0.8,-3.09 -2.54,-5.18 -4.74,-5.18 -0.3,0 -1.44,0 -2.48,0.65 1.25,0.24 2.34,1.28 2.34,2.69 0,1.34 -1.09,1.73 -1.84,1.73 -1.5,0 -2.75,-1.29 -2.75,-2.89 0,-2.28 2.5,-3.28 4.68,-3.28 3.3,0 5.08,3.49 5.24,3.78 0.59,-1.84 2.39,-3.78 5.37,-3.78 5.14,0 7.99,6.42 7.99,7.67 0,0.5 -0.46,0.5 -0.61,0.5 -0.44,0 -0.55,-0.2 -0.64,-0.54 -1.64,-5.33 -5.03,-6.53 -6.63,-6.53 -1.95,0 -2.75,1.59 -2.75,3.29 0,1.1 0.3,2.19 0.86,4.38 z"
           inkscape:connector-curvature="0"
           style="fill:#000000;stroke-width:0" /><path
           id="path4258"
           d="m 580.95,417.65 -0.26,-0.19 -0.24,-0.2 -0.24,-0.19 -0.23,-0.2 -0.22,-0.19 -0.21,-0.19 -0.2,-0.19 -0.2,-0.19 -0.19,-0.18 -0.18,-0.18 -0.18,-0.18 -0.17,-0.18 -0.16,-0.17 -0.15,-0.17 -0.15,-0.17 -0.14,-0.16 -0.13,-0.15 -0.13,-0.16 -0.12,-0.15 -0.11,-0.14 -0.11,-0.14 -0.1,-0.13 -0.09,-0.13 -0.09,-0.12 -0.08,-0.11 -0.08,-0.11 -0.07,-0.11 -0.06,-0.09 -0.06,-0.09 -0.05,-0.08 -0.05,-0.07 -0.04,-0.07 c -2.23,-3.44 -2.64,-6.58 -2.64,-6.62 0,-0.6 0.61,-0.6 1,-0.6 0.84,0 0.89,0.1 1.09,1 1.16,4.88 4.1,9.06 9.72,11.36 0.6,0.19 0.75,0.3 0.75,0.64 0,0.35 -0.29,0.5 -0.4,0.55 -2.19,0.84 -8.22,3.34 -10.11,11.72 -0.16,0.59 -0.21,0.73 -1.05,0.73 -0.39,0 -1,0 -1,-0.59 0,-0.1 0.45,-3.24 2.55,-6.58 1,-1.48 2.43,-3.23 4.58,-4.83 h -37.02 c -0.89,0 -1.8,0 -1.8,-1 0,-1 0.91,-1 1.8,-1 z"
           inkscape:connector-curvature="0"
           style="fill:#000000;stroke-width:0" /><path
           id="path4260"
           d="m 625.91,422.14 0,0.74 -0.01,0.75 -0.02,0.75 -0.03,0.74 -0.05,0.75 -0.06,0.74 -0.07,0.74 -0.1,0.73 -0.12,0.73 -0.13,0.73 -0.17,0.72 -0.19,0.72 -0.21,0.72 -0.25,0.7 -0.28,0.7 -0.15,0.35 -0.16,0.34 c -2.28,4.8 -6.37,5.6 -8.46,5.6 -2.99,0 -6.63,-1.3 -8.68,-5.94 -1.59,-3.44 -1.84,-7.33 -1.84,-11.31 0,-3.74 0.2,-8.22 2.25,-12 2.14,-4.03 5.78,-5.03 8.22,-5.03 v 1.09 c -1.94,0 -4.89,1.25 -5.78,6.03 -0.55,2.98 -0.55,7.56 -0.55,10.52 0,3.18 0,6.46 0.41,9.15 0.93,5.94 4.67,6.38 5.92,6.38 1.64,0 4.94,-0.89 5.87,-5.83 0.5,-2.78 0.5,-6.58 0.5,-9.7 0,-3.75 0,-7.13 -0.54,-10.32 -0.75,-4.73 -3.6,-6.23 -5.83,-6.23 h 0 v -1.09 c 2.69,0 6.47,1.04 8.67,5.78 1.59,3.43 1.84,7.31 1.84,11.25 z"
           inkscape:connector-curvature="0"
           style="fill:#000000;stroke-width:0" /></g>    </g>
  </g>
</svg>
