<?xml version="1.0" encoding="UTF-8" standalone="no"?>
<!-- Created with Inkscape (http://www.inkscape.org/) -->

<svg
   xmlns:dc="http://purl.org/dc/elements/1.1/"
   xmlns:cc="http://creativecommons.org/ns#"
   xmlns:rdf="http://www.w3.org/1999/02/22-rdf-syntax-ns#"
   xmlns:svg="http://www.w3.org/2000/svg"
   xmlns="http://www.w3.org/2000/svg"
   xmlns:sodipodi="http://sodipodi.sourceforge.net/DTD/sodipodi-0.dtd"
   xmlns:inkscape="http://www.inkscape.org/namespaces/inkscape"
   width="744.09448819"
   height="1052.3622047"
   id="svg2"
   version="1.1"
   inkscape:version="0.48.4 r9939"
   sodipodi:docname="partial-derivative-1.svg">
  <sodipodi:namedview
     id="base"
     pagecolor="#ffffff"
     bordercolor="#666666"
     borderopacity="1.0"
     inkscape:pageopacity="0.0"
     inkscape:pageshadow="2"
     inkscape:zoom="0.24748737"
     inkscape:cx="775.29582"
     inkscape:cy="207.38562"
     inkscape:document-units="px"
     inkscape:current-layer="layer1"
     showgrid="false"
     inkscape:window-width="1319"
     inkscape:window-height="744"
     inkscape:window-x="47"
     inkscape:window-y="24"
     inkscape:window-maximized="1" />
  <defs
     id="defs4" />
  <metadata
     id="metadata7">
    <rdf:RDF>
      <cc:Work
         rdf:about="">
        <dc:format>image/svg+xml</dc:format>
        <dc:type
           rdf:resource="http://purl.org/dc/dcmitype/StillImage" />
        <dc:title />
      </cc:Work>
    </rdf:RDF>
  </metadata>
  <g
     id="layer1"
     inkscape:groupmode="layer"
     inkscape:label="Layer 1">
    <g
       transform="matrix(0.99784767,-0.06557468,0.06557468,0.99784767,667.77592,334.84488)"
       id="g3175">
      <path
         style="fill:#e5d4b1;stroke:#000000;stroke-width:3"
         inkscape:connector-curvature="0"
         d="m 466.982,303.788 c -22,-3 -57,-23 -62,-26 -5,-3 -28,-28 -40,-47 -12,-19 -23,-42 -27,-55 -4,-13 -8,-26 -9,-33 -1,-7 1,-23.5 4,-30.5 -7,-5 -21,-6 -27,7 -6,13 -11,33 -11,46 0,13 22,55 8,61 -14,6 -17,14 -89,-4 -72,-18 -102,-20 -109,-6 -7,14 34,20 56,24 22,4 72.021,22.634 65,32 -4.35,5.802 -9.375,4.488 -20.709,8.488 -19.611,6.922 -19.308,9.966 -43.791,18.345 -24.433,8.362 -22.843,32.226 -15.167,36.23 7.676,4.004 14.016,6.342 46.386,-12.013 14.35,-5.34 31.782,-8.885 47.115,-10.218 15.333,-1.333 24.668,56 41.334,64.667 16.666,8.667 35.999,8 47.999,8 12,0 18.666,2.001 25.333,-1.333 6.667,-3.334 25.334,1.332 35.334,6.666 0,0 38.667,18.667 42,22.667"
         id="path3103" />
      <path
         style="fill:none;stroke:#897f6a;stroke-width:2"
         inkscape:connector-curvature="0"
         d="m 234.483,270.787 c 33.999,-1.999 45.999,30.667 53.999,48.001"
         id="path3105" />
      <path
         style="fill:none;stroke:#897f6a;stroke-width:2"
         inkscape:connector-curvature="0"
         d="m 306.149,245.453 c 0.334,25.334 11.001,46.668 25.333,54.666"
         id="path3107" />
      <path
         style="fill:none;stroke:#897f6a;stroke-width:2"
         inkscape:connector-curvature="0"
         d="m 239.816,230.787 c -8,1.333 -17.333,20 -13.333,25.333"
         id="path3109" />
      <path
         style="fill:none;stroke:#897f6a;stroke-width:2"
         inkscape:connector-curvature="0"
         d="m 197.149,220.12 c -5.333,4 -16,13.333 -13.333,18.667"
         id="path3111" />
      <path
         style="fill:none;stroke:#897f6a;stroke-width:2"
         inkscape:connector-curvature="0"
         d="m 149.149,212.12 c -6.667,4 -8.834,15.501 -10.167,18.167"
         id="path3113" />
      <path
         style="fill:none;stroke:#897f6a;stroke-width:2"
         inkscape:connector-curvature="0"
         d="m 222.483,280.121 c 8,4 12,17.332 9.333,26.666"
         id="path3115" />
      <path
         style="fill:none;stroke:#897f6a;stroke-width:2"
         inkscape:connector-curvature="0"
         d="m 201.296,287.393 c 6.667,4 7.248,23.993 4.581,27.993"
         id="path3117" />
      <path
         style="fill:none;stroke:#897f6a;stroke-width:2"
         inkscape:connector-curvature="0"
         d="m 175.848,298.59 c 8.648,6.485 9.591,15.534 5.089,26.466"
         id="path3119" />
      <path
         style="fill:none;stroke:#897f6a;stroke-width:2"
         inkscape:connector-curvature="0"
         d="m 293.982,236.288 c -4,10 -7,18 -6,24"
         id="path3121" />
      <path
         style="fill:none;stroke:#897f6a;stroke-width:2"
         inkscape:connector-curvature="0"
         d="m 294.982,165.288 c 11.947,1.707 2.677,3.252 25,-1"
         id="path3123" />
      <path
         style="fill:none;stroke:#897f6a;stroke-width:2"
         inkscape:connector-curvature="0"
         d="m 399.149,286.788 c -4,12 -8,15.999 -14.667,19.999"
         id="path3125" />
      <path
         style="fill:#e5d4b1;stroke:#000000;stroke-width:3"
         inkscape:connector-curvature="0"
         d="m 299.816,374.455 c 15.905,-3.181 27.334,-5.333 36,-8 8.666,-2.667 21.332,-10.001 24.666,-16.667 3.334,-6.666 0.667,-7.999 -1.333,-12.666 -2,-4.667 -23.999,-2 -29.333,0 -5.334,2 -10,4 -32,7.333 -22,3.333 -28,5 -39.334,3.666 -9.292,-1.094 1.335,22.333 6.001,25 4.666,2.667 5.333,7.334 35.333,1.334 z"
         id="path3127" />
      <path
         style="fill:#e5d4b1;stroke:#000000;stroke-width:3"
         inkscape:connector-curvature="0"
         d="m 316.784,311.788 c 18.897,-1.333 28.348,-2.666 33.435,2.667 5.087,5.333 2.906,10.667 1.453,12 -1.453,1.333 -18.171,8.666 -26.893,11.333 -8.723,2.667 -10.176,0.667 -27.619,4.667 -17.444,4 -18.897,5.333 -23.986,7.333 -5.088,2 -15.263,1.333 -24.711,-6 -9.449,-7.333 -7.996,-20 -7.269,-24 0.727,-4 1.455,-12.667 19.625,-14 18.17,-1.333 12.354,4.666 35.614,5.333 23.258,0.667 20.351,0.667 20.351,0.667 z"
         id="path3129" />
      <path
         style="fill:none;stroke:#897f6a;stroke-width:2"
         inkscape:connector-curvature="0"
         d="m 245.815,318.455 c -1.923,17.305 1.109,18.166 10.667,25.333"
         id="path3131" />
      <path
         style="fill:none;stroke:#897f6a;stroke-width:2"
         inkscape:connector-curvature="0"
         d="m 275.149,318.787 c 0,5.333 1.333,17.333 1.333,17.333"
         id="path3133" />
      <path
         style="fill:none;stroke:#897f6a;stroke-width:2"
         inkscape:connector-curvature="0"
         d="m 308.149,317.12 c 0,2.667 1.334,13.333 1.334,17.333"
         id="path3135" />
      <path
         style="fill:none;stroke:#897f6a;stroke-width:2"
         inkscape:connector-curvature="0"
         d="m 314.815,347.122 c 0,4 6.667,17.333 6.667,17.333"
         id="path3137" />
      <path
         style="fill:none;stroke:#897f6a;stroke-width:2"
         inkscape:connector-curvature="0"
         d="m 282.482,354.788 c 1.333,2.667 2.667,14.666 6.667,16"
         id="path3139" />
      <path
         style="fill:none;stroke:#897f6a;stroke-width:2"
         inkscape:connector-curvature="0"
         d="m 405.815,318.788 c -6.666,12 -10.666,42.668 -17.333,49.334"
         id="path3141" />
      <line
         style="fill:none;stroke:#963c96;stroke-width:9;stroke-linecap:round"
         x1="323.48199"
         y1="90.788002"
         x2="322.814"
         y2="41.787998"
         id="line3143" />
      <polygon
         style="fill:#963c96"
         points="299.501,60.3 322.814,0 346.127,60.3 322.814,41.788 "
         id="polygon3145" />
      <line
         style="fill:none;stroke:#2828ff;stroke-width:9;stroke-linecap:round"
         x1="88.996002"
         y1="210.46001"
         x2="40.900002"
         y2="201.067"
         id="line3147" />
      <polygon
         style="fill:#2828ff"
         points="54.24,227.68 0,192.5 63.799,182.044 40.9,201.067 "
         id="polygon3149" />
      <line
         style="fill:none;stroke:#e12828;stroke-width:9;stroke-linecap:round"
         x1="126.377"
         y1="335.255"
         x2="95.584999"
         y2="348.005"
         id="line3151" />
      <polygon
         style="fill:#e12828"
         points="118.064,371.413 69.063,358.197 96.605,315.568 95.585,348.005 "
         id="polygon3153" />
      <g
         id="g3155">
        <path
           style="fill:#2828ff"
           inkscape:connector-curvature="0"
           d="m 375.868,62.098 -0.308,-0.103 c -1.121,1.094 -2.212,1.887 -3.271,2.379 -1.059,0.492 -2.184,0.738 -3.373,0.738 -1.75,0 -3.138,-0.461 -4.163,-1.384 -1.025,-0.923 -1.538,-2.157 -1.538,-3.702 0,-2.01 0.987,-3.592 2.963,-4.748 1.976,-1.156 4.974,-1.883 8.993,-2.184 v -1.948 c 0,-1.271 -0.144,-2.252 -0.431,-2.943 -0.287,-0.691 -0.656,-1.176 -1.107,-1.456 -0.451,-0.28 -0.991,-0.42 -1.62,-0.42 -0.629,0 -1.173,0.109 -1.63,0.328 -0.459,0.219 -0.872,0.632 -1.241,1.241 -0.369,0.609 -0.643,1.453 -0.82,2.533 h -3.876 v -3.732 c 1.572,-0.697 2.902,-1.22 3.988,-1.569 1.088,-0.349 2.099,-0.605 3.035,-0.769 0.936,-0.164 1.836,-0.246 2.697,-0.246 1.654,0 2.977,0.219 3.969,0.656 0.99,0.438 1.732,1.148 2.225,2.133 0.493,0.985 0.738,2.345 0.738,4.081 v 7.998 c 0,1.162 0.034,1.986 0.103,2.471 0.069,0.485 0.175,0.837 0.317,1.056 0.145,0.219 0.328,0.39 0.555,0.513 0.225,0.123 0.639,0.26 1.24,0.41 v 1.354 h -7.629 l 0.184,-2.687 z m -0.677,-6.994 c -2.119,0.055 -3.688,0.451 -4.707,1.189 -1.019,0.738 -1.527,1.818 -1.527,3.24 0,0.848 0.232,1.494 0.697,1.938 0.465,0.444 1.107,0.667 1.928,0.667 0.629,0 1.224,-0.167 1.784,-0.502 0.56,-0.335 1.005,-0.783 1.333,-1.343 0.328,-0.56 0.492,-1.155 0.492,-1.784 v -3.405 z"
           id="path3157" />
        <path
           inkscape:connector-curvature="0"
           d="m 403.971,52.808 9.208,9.311 -2.051,2.051 -9.188,-9.372 -9.475,9.29 -1.907,-1.928 9.372,-9.352 -9.33,-9.208 2.051,-2.051 9.29,9.27 9.29,-9.27 1.928,1.907 -9.188,9.352 z"
           id="path3159" />
        <path
           style="fill:#e12828"
           inkscape:connector-curvature="0"
           d="m 422.54,42.492 c 0,-1.299 -0.021,-2.242 -0.062,-2.83 -0.041,-0.588 -0.127,-1.042 -0.256,-1.364 -0.131,-0.321 -0.328,-0.574 -0.596,-0.759 -0.266,-0.185 -0.734,-0.345 -1.404,-0.482 v -1.354 l 5.722,-0.287 h 2.522 v 11.751 l 0.021,0.021 c 1.217,-1.135 2.32,-1.931 3.312,-2.389 0.992,-0.458 2.007,-0.687 3.046,-0.687 2.434,0 4.259,0.858 5.476,2.574 1.217,1.716 1.825,4.283 1.825,7.701 0,3.568 -0.804,6.248 -2.409,8.039 -1.607,1.791 -3.982,2.687 -7.127,2.687 -2.16,0 -4.136,-0.39 -5.927,-1.169 l -1.518,1.169 -2.625,-0.369 V 42.492 z m 5.926,15.566 c 0,1.682 0.29,2.922 0.871,3.722 0.581,0.8 1.48,1.2 2.697,1.2 1.258,0 2.218,-0.66 2.881,-1.979 0.663,-1.319 0.995,-3.203 0.995,-5.65 0,-2.693 -0.294,-4.703 -0.882,-6.029 -0.588,-1.326 -1.504,-1.989 -2.748,-1.989 -0.602,0 -1.196,0.157 -1.784,0.472 -0.588,0.315 -1.073,0.762 -1.456,1.343 -0.383,0.581 -0.574,1.22 -0.574,1.917 v 6.993 z"
           id="path3161" />
      </g>
      <g
         id="g3163">
        <path
           style="fill:#2828ff"
           inkscape:connector-curvature="0"
           d="m 74.339,166.769 -0.308,-0.103 c -1.121,1.094 -2.212,1.887 -3.271,2.379 -1.059,0.492 -2.184,0.738 -3.373,0.738 -1.75,0 -3.138,-0.461 -4.163,-1.384 -1.025,-0.923 -1.538,-2.157 -1.538,-3.702 0,-2.01 0.987,-3.592 2.963,-4.748 1.976,-1.156 4.974,-1.883 8.993,-2.184 v -1.948 c 0,-1.271 -0.144,-2.252 -0.431,-2.943 -0.287,-0.691 -0.656,-1.176 -1.107,-1.456 -0.451,-0.28 -0.991,-0.42 -1.62,-0.42 -0.629,0 -1.173,0.109 -1.63,0.328 -0.459,0.219 -0.872,0.632 -1.241,1.241 -0.369,0.609 -0.643,1.453 -0.82,2.533 h -3.876 v -3.732 c 1.572,-0.697 2.902,-1.22 3.988,-1.569 1.088,-0.349 2.099,-0.605 3.035,-0.769 0.936,-0.164 1.836,-0.246 2.697,-0.246 1.654,0 2.977,0.219 3.969,0.656 0.99,0.438 1.732,1.148 2.225,2.133 0.493,0.985 0.738,2.345 0.738,4.081 v 7.998 c 0,1.162 0.034,1.986 0.103,2.471 0.069,0.485 0.175,0.837 0.317,1.056 0.145,0.219 0.328,0.39 0.555,0.513 0.225,0.123 0.639,0.26 1.24,0.41 v 1.354 h -7.629 l 0.184,-2.687 z m -0.676,-6.994 c -2.119,0.055 -3.688,0.451 -4.707,1.189 -1.019,0.738 -1.527,1.818 -1.527,3.24 0,0.848 0.232,1.494 0.697,1.938 0.465,0.444 1.107,0.667 1.928,0.667 0.629,0 1.224,-0.167 1.784,-0.502 0.56,-0.335 1.005,-0.783 1.333,-1.343 0.328,-0.56 0.492,-1.155 0.492,-1.784 v -3.405 z"
           id="path3165" />
      </g>
      <g
         id="g3167">
        <path
           style="fill:#e12828"
           inkscape:connector-curvature="0"
           d="m 93.716,283.163 c 0,-1.299 -0.021,-2.242 -0.062,-2.83 -0.041,-0.588 -0.127,-1.042 -0.256,-1.363 -0.131,-0.321 -0.328,-0.574 -0.596,-0.759 -0.266,-0.185 -0.734,-0.345 -1.404,-0.481 v -1.354 l 5.722,-0.287 h 2.522 v 11.75 l 0.021,0.021 c 1.217,-1.135 2.32,-1.932 3.312,-2.39 0.992,-0.458 2.007,-0.687 3.046,-0.687 2.434,0 4.259,0.857 5.476,2.573 1.217,1.716 1.825,4.282 1.825,7.7 0,3.568 -0.804,6.248 -2.409,8.039 -1.607,1.791 -3.982,2.688 -7.127,2.688 -2.16,0 -4.136,-0.391 -5.927,-1.17 l -1.518,1.17 -2.625,-0.369 v -22.251 z m 5.927,15.566 c 0,1.682 0.29,2.922 0.871,3.722 0.581,0.8 1.48,1.2 2.697,1.2 1.258,0 2.218,-0.66 2.881,-1.979 0.663,-1.319 0.995,-3.202 0.995,-5.649 0,-2.693 -0.294,-4.703 -0.882,-6.029 -0.588,-1.326 -1.504,-1.99 -2.748,-1.99 -0.602,0 -1.196,0.158 -1.784,0.473 -0.588,0.315 -1.073,0.762 -1.456,1.343 -0.383,0.581 -0.574,1.22 -0.574,1.917 v 6.992 z"
           id="path3169" />
      </g>
    </g>
    <path
       inkscape:connector-curvature="0"
       id="path3211"
       d="m 428.85714,188.93361 1.42857,327.14286 -460,-10"
       style="fill:none;stroke:#000000;stroke-width:3;stroke-linecap:butt;stroke-linejoin:miter;stroke-miterlimit:4;stroke-opacity:1;stroke-dasharray:none" />
    <path
       inkscape:connector-curvature="0"
       id="path3213"
       d="M 430.85714,516.6479 52.285714,790.93361"
       style="fill:none;stroke:#000000;stroke-width:3;stroke-linecap:butt;stroke-linejoin:miter;stroke-miterlimit:4;stroke-opacity:1;stroke-dasharray:none" />
    <g
       id="g4025"
       transform="translate(-369.71429,165.14286)">
      <g
         word-spacing="normal"
         letter-spacing="normal"
         font-size-adjust="none"
         font-stretch="normal"
         font-weight="normal"
         font-variant="normal"
         font-style="normal"
         stroke-miterlimit="10.433"
         xml:space="preserve"
         transform="matrix(1.0629921,0,0,-1.0629921,-186.02362,789.27165)"
         id="content"
         style="font-style:normal;font-variant:normal;font-weight:normal;font-stretch:normal;letter-spacing:normal;word-spacing:normal;text-anchor:start;fill:none;stroke:#000000;stroke-linecap:butt;stroke-linejoin:miter;stroke-miterlimit:10.43299961;stroke-opacity:1;stroke-dasharray:none;stroke-dashoffset:0"><path
           id="path4028"
           d="m 479.68,426.68 -4.18,9.91 c -0.15,0.41 -0.25,0.59 -0.25,0.64 0,0.31 0.85,1.25 2.94,1.45 0.5,0.05 1,0.1 1,0.96 0,0.59 -0.61,0.59 -0.75,0.59 -2.05,0 -4.19,-0.16 -6.28,-0.16 -1.25,0 -4.33,0.16 -5.58,0.16 -0.29,0 -0.9,0 -0.9,-1 0,-0.55 0.5,-0.55 1.15,-0.55 2.99,0 3.28,-0.5 3.74,-1.59 l 5.87,-13.91 -10.51,-11.31 -0.64,-0.55 c -2.44,-2.64 -4.79,-3.43 -7.33,-3.57 -0.64,-0.05 -1.1,-0.05 -1.1,-1 0,-0.05 0,-0.55 0.66,-0.55 1.48,0 3.12,0.16 4.67,0.16 1.85,0 3.8,-0.16 5.58,-0.16 0.31,0 0.91,0 0.91,1 0,0.5 -0.5,0.55 -0.6,0.55 -0.45,0.04 -2,0.14 -2,1.54 0,0.8 0.75,1.6 1.35,2.24 l 5.07,5.39 4.49,4.87 5.03,-11.9 c 0.2,-0.55 0.25,-0.6 0.25,-0.71 0,-0.39 -0.94,-1.23 -2.89,-1.43 -0.55,-0.05 -0.99,-0.11 -0.99,-0.96 0,-0.59 0.55,-0.59 0.74,-0.59 1.41,0 4.89,0.16 6.28,0.16 1.25,0 4.28,-0.16 5.53,-0.16 0.35,0 0.95,0 0.95,0.95 0,0.6 -0.5,0.6 -0.9,0.6 -3.33,0.04 -3.44,0.2 -4.28,2.18 -1.94,4.64 -5.28,12.41 -6.42,15.39 3.39,3.5 8.6,9.43 10.2,10.82 1.45,1.2 3.34,2.39 6.33,2.54 0.65,0.05 1.09,0.05 1.09,1 0,0.05 0,0.55 -0.64,0.55 -1.5,0 -3.14,-0.16 -4.69,-0.16 -1.84,0 -3.73,0.16 -5.53,0.16 -0.3,0 -0.94,0 -0.94,-1 0,-0.34 0.25,-0.5 0.6,-0.55 0.45,-0.04 2,-0.15 2,-1.54 0,-0.71 -0.55,-1.35 -0.96,-1.8 z"
           inkscape:connector-curvature="0"
           style="fill:#000000;stroke-width:0" /></g>    </g>
    <g
       transform="translate(-284,450.85714)"
       id="g4118">
      <g
         style="font-style:normal;font-variant:normal;font-weight:normal;font-stretch:normal;letter-spacing:normal;word-spacing:normal;text-anchor:start;fill:none;stroke:#000000;stroke-linecap:butt;stroke-linejoin:miter;stroke-miterlimit:10.43299961;stroke-opacity:1;stroke-dasharray:none;stroke-dashoffset:0"
         id="g4120"
         transform="matrix(1.0629921,0,0,-1.0629921,-186.02362,789.27165)"
         xml:space="preserve"
         stroke-miterlimit="10.433"
         font-style="normal"
         font-variant="normal"
         font-weight="normal"
         font-stretch="normal"
         font-size-adjust="none"
         letter-spacing="normal"
         word-spacing="normal"><path
           style="fill:#000000;stroke-width:0"
           inkscape:connector-curvature="0"
           d="m 485.27,434.54 0.69,0.71 c 1.5,1.5 3.14,3.18 6.53,3.43 0.55,0.05 1,0.05 1,0.96 0,0.39 -0.25,0.59 -0.66,0.59 -1.29,0 -2.73,-0.16 -4.08,-0.16 -1.64,0 -3.39,0.16 -4.98,0.16 -0.3,0 -0.95,0 -0.95,-0.95 0,-0.55 0.5,-0.6 0.75,-0.6 0.34,0 1.79,-0.09 1.79,-1.14 0,-0.86 -1.14,-2.14 -1.34,-2.39 l -11.56,-13.31 -5.49,14.8 c -0.29,0.7 -0.29,0.79 -0.29,0.84 0,1.2 2.43,1.2 2.93,1.2 0.71,0 1.21,0 1.21,1 0,0.55 -0.6,0.55 -0.75,0.55 -1.39,0 -4.88,-0.16 -6.28,-0.16 -1.24,0 -4.33,0.16 -5.58,0.16 -0.3,0 -0.94,0 -0.94,-1 0,-0.55 0.48,-0.55 1.14,-0.55 2.98,0 3.19,-0.45 3.64,-1.68 l 6.13,-16.41 c 0.04,-0.14 0.2,-0.69 0.2,-0.84 0,-0.14 -2,-8.18 -2.25,-9.07 -0.64,-2.73 -0.69,-2.89 -4.69,-2.93 -0.94,0 -1.34,0 -1.34,-1 0,-0.55 0.61,-0.55 0.7,-0.55 1.39,0 4.88,0.16 6.28,0.16 1.39,0 4.99,-0.16 6.38,-0.16 0.34,0 0.93,0 0.93,1 0,0.55 -0.43,0.55 -1.39,0.55 -0.09,0 -1.04,0 -1.89,0.09 -1.04,0.11 -1.34,0.2 -1.34,0.8 0,0.36 0.45,2.09 0.7,3.14 l 1.74,7.03 c 0.25,0.94 0.29,1.09 0.7,1.55 z"
           id="path4122" /></g>    </g>
    <g
       id="g4218"
       transform="translate(137.42857,-152)">
      <g
         word-spacing="normal"
         letter-spacing="normal"
         font-size-adjust="none"
         font-stretch="normal"
         font-weight="normal"
         font-variant="normal"
         font-style="normal"
         stroke-miterlimit="10.433"
         xml:space="preserve"
         transform="matrix(1.0629921,0,0,-1.0629921,-186.02362,789.27165)"
         id="g4220"
         style="font-style:normal;font-variant:normal;font-weight:normal;font-stretch:normal;letter-spacing:normal;word-spacing:normal;text-anchor:start;fill:none;stroke:#000000;stroke-linecap:butt;stroke-linejoin:miter;stroke-miterlimit:10.43299961;stroke-opacity:1;stroke-dasharray:none;stroke-dashoffset:0"><path
           id="path4222"
           d="m 491.39,439.03 0.01,0.04 0.01,0.04 0.01,0.04 0.02,0.04 0.01,0.04 0.01,0.05 0.01,0.04 0.01,0.05 0.01,0.04 0.01,0.05 0.01,0.05 0.01,0.05 0.01,0.05 0,0.06 0,0.05 0,0.03 0.01,0.03 c 0,0.45 -0.25,0.45 -1.24,0.45 h -21.03 c -1.19,0 -1.25,-0.05 -1.55,-1 l -2.73,-8.97 c -0.11,-0.25 -0.16,-0.59 -0.16,-0.7 0,-0.05 0,-0.55 0.61,-0.55 0.44,0 0.55,0.36 0.64,0.5 1.89,5.89 4.49,9.17 12.25,9.17 h 8.13 l -27.85,-31.14 c 0,-0.04 -0.2,-0.75 -0.2,-0.89 0,-0.45 0.34,-0.45 1.25,-0.45 h 21.67 c 1.19,0 1.24,0.05 1.55,1 l 3.53,11 c 0.05,0.2 0.2,0.56 0.2,0.75 0,0.25 -0.2,0.55 -0.65,0.55 -0.44,0 -0.5,-0.19 -0.85,-1.24 -2.18,-6.78 -4.57,-10.37 -13.04,-10.37 h -8.53 z"
           inkscape:connector-curvature="0"
           style="fill:#000000;stroke-width:0" /></g>    </g>
    <g
       transform="translate(134.57143,186.57143)"
       id="g4324">
      <g
         style="font-style:normal;font-variant:normal;font-weight:normal;font-stretch:normal;letter-spacing:normal;word-spacing:normal;text-anchor:start;fill:none;stroke:#000000;stroke-linecap:butt;stroke-linejoin:miter;stroke-miterlimit:10.43299961;stroke-opacity:1;stroke-dasharray:none;stroke-dashoffset:0"
         id="g4326"
         transform="matrix(1.0629921,0,0,-1.0629921,-186.02362,789.27165)"
         xml:space="preserve"
         stroke-miterlimit="10.433"
         font-style="normal"
         font-variant="normal"
         font-weight="normal"
         font-stretch="normal"
         font-size-adjust="none"
         letter-spacing="normal"
         word-spacing="normal"><path
           style="fill:#000000;stroke-width:0"
           inkscape:connector-curvature="0"
           d="m 478.44,422.14 0,0.74 -0.01,0.75 -0.02,0.75 -0.04,0.74 -0.04,0.75 -0.06,0.74 -0.08,0.74 -0.09,0.73 -0.12,0.73 -0.14,0.73 -0.16,0.72 -0.19,0.72 -0.21,0.72 -0.25,0.7 -0.28,0.7 -0.15,0.35 -0.16,0.34 c -2.28,4.8 -6.37,5.6 -8.47,5.6 -2.98,0 -6.62,-1.3 -8.67,-5.94 -1.59,-3.44 -1.84,-7.33 -1.84,-11.31 0,-3.74 0.2,-8.22 2.25,-12 2.14,-4.03 5.78,-5.03 8.22,-5.03 v 1.09 c -1.94,0 -4.89,1.25 -5.79,6.03 -0.54,2.98 -0.54,7.56 -0.54,10.52 0,3.18 0,6.46 0.4,9.15 0.94,5.94 4.68,6.38 5.93,6.38 1.64,0 4.93,-0.89 5.87,-5.83 0.5,-2.78 0.5,-6.58 0.5,-9.7 0,-3.75 0,-7.13 -0.55,-10.32 -0.75,-4.73 -3.59,-6.23 -5.82,-6.23 h 0 v -1.09 c 2.68,0 6.46,1.04 8.67,5.78 1.59,3.43 1.84,7.31 1.84,11.25 z"
           id="path4328" /></g>    </g>
    <path
       inkscape:connector-curvature="0"
       d="m 230.8674,504.24229 c -0.53354,0.72422 -1.1535,1.37543 -1.79626,2.00225 -0.55733,0.54729 -1.08226,1.12603 -1.56254,1.74187 -0.48251,0.66274 -0.97403,1.30871 -1.56986,1.87428 -0.4314,0.41462 -0.88253,0.80827 -1.30636,1.23067 0,0 -4.27287,-0.33156 -4.27287,-0.33156 l 0,0 c 0.42027,-0.44033 0.87957,-0.83017 1.30887,-1.26158 0.62268,-0.50969 1.09754,-1.14296 1.56375,-1.79313 0.48543,-0.63659 1.00724,-1.23777 1.56762,-1.81062 0.65288,-0.58707 1.25081,-1.23489 1.79081,-1.92778 0,0 4.27684,0.2756 4.27684,0.2756 z"
       id="path4386"
       style="fill:#000000;fill-opacity:1;stroke-width:3;stroke-miterlimit:4;stroke-dasharray:none;stroke-dashoffset:0" />
    <path
       inkscape:connector-curvature="0"
       d="m 225.76658,512.89527 c 0.39525,0.62599 0.69919,1.30565 1.08208,1.93741 0.24321,0.52139 0.6838,0.89793 0.95946,1.39698 0.38776,0.50284 0.70076,0.995 0.87918,1.61152 0.10631,0.60126 0.16489,1.21261 0.53174,1.71876 0,0 -4.27911,0.23794 -4.27911,0.23794 l 0,0 c -0.31147,-0.57231 -0.42891,-1.19043 -0.5364,-1.82786 -0.18996,-0.56801 -0.55194,-1.00904 -0.87473,-1.50625 -0.31861,-0.46946 -0.71738,-0.88663 -0.95999,-1.40708 -0.3488,-0.6344 -0.67717,-1.28269 -1.07907,-1.88583 0,0 4.27684,-0.27559 4.27684,-0.27559 z"
       id="path4388"
       style="fill:#000000;fill-opacity:1;stroke-width:3;stroke-miterlimit:4;stroke-dasharray:none;stroke-dashoffset:0" />
    <path
       inkscape:connector-curvature="0"
       d="m 430.47006,352.92957 c -0.50547,1.31578 -0.97283,2.65071 -1.41942,3.98964 -0.54799,1.33454 -0.91648,2.73306 -1.53209,4.0392 -0.56246,1.26022 -1.15787,2.49912 -1.91039,3.65861 0,0 -3.56526,-0.20986 -3.56526,-0.20986 l 0,0 c 0.77364,-1.1289 1.35044,-2.36407 1.90786,-3.60996 0.63927,-1.27981 0.97126,-2.6771 1.53026,-3.99186 0.44368,-1.35757 0.93621,-2.6998 1.42145,-4.0413 0,0 3.56759,0.16553 3.56759,0.16553 z"
       id="path4418"
       style="fill:#000000;fill-opacity:1;stroke-width:3;stroke-miterlimit:4;stroke-dasharray:none;stroke-dashoffset:0" />
    <path
       inkscape:connector-curvature="0"
       d="m 432.24039,353.47832 c 0.50472,1.31748 1.31255,2.46026 2.13977,3.58753 0.91568,0.84344 1.4374,1.9571 1.98733,3.0488 0.38962,1.00804 0.84846,1.98597 1.27253,2.97959 0,0 -3.56849,0.14488 -3.56849,0.14488 l 0,0 c -0.42583,-0.9847 -0.86573,-1.96264 -1.27149,-2.95595 -0.55593,-1.07421 -1.09713,-2.14104 -1.98413,-2.99098 -0.8408,-1.1405 -1.61139,-2.32658 -2.14311,-3.64834 0,0 3.56759,-0.16553 3.56759,-0.16553 z"
       id="path4420"
       style="fill:#000000;fill-opacity:1;stroke-width:3;stroke-miterlimit:4;stroke-dasharray:none;stroke-dashoffset:0" />
    <path
       inkscape:connector-curvature="0"
       d="m 271.27117,623.60483 c -0.52826,1.23224 -0.94472,2.50871 -1.54369,3.70939 -0.50933,1.11873 -1.1697,2.16085 -1.56238,3.32899 -0.49553,1.21486 -0.74909,2.49844 -1.17223,3.73669 -0.0585,0.19297 -0.11701,0.38593 -0.17552,0.5789 0,0 -3.56991,-0.10407 -3.56991,-0.10407 l 0,0 c 0.0587,-0.19759 0.1173,-0.39519 0.17595,-0.59279 0.42546,-1.2365 0.67733,-2.51751 1.17206,-3.73159 0.38057,-1.1952 1.0426,-2.24966 1.5646,-3.38507 0.61379,-1.16701 0.98541,-2.43375 1.54076,-3.62793 0,0 3.57036,0.0875 3.57036,0.0875 z"
       id="path4428"
       style="fill:#000000;fill-opacity:1;stroke-width:3;stroke-miterlimit:4;stroke-dasharray:none;stroke-dashoffset:0" />
    <path
       inkscape:connector-curvature="0"
       d="m 266.24636,633.13713 c -0.0825,0.32051 -0.20153,0.62712 -0.26647,0.95306 -0.0941,0.29208 -0.16194,0.59009 -0.26737,0.8782 -0.0923,0.23399 -0.10375,0.48631 -0.16154,0.7284 0,0 -0.8926,-0.0216 -0.8926,-0.0216 l 0,0 c 0.0624,-0.24428 0.0686,-0.5009 0.16183,-0.73824 0.10474,-0.28384 0.17164,-0.57673 0.26699,-0.8641 0.0637,-0.32806 0.18012,-0.63671 0.26657,-0.95759 0,0 0.89259,0.0219 0.89259,0.0219 z"
       id="path4436"
       style="fill:#000000;fill-opacity:1;stroke-width:3;stroke-miterlimit:4;stroke-dasharray:none;stroke-dashoffset:0" />
    <path
       inkscape:connector-curvature="0"
       d="m 265.15323,634.21831 c -0.1585,0.34135 -0.29764,0.6903 -0.45443,1.03235 -0.13294,0.31822 -0.21316,0.65564 -0.3364,0.97711 0,0 -0.89223,-0.0335 -0.89223,-0.0335 l 0,0 c 0.12972,-0.32042 0.20378,-0.66207 0.3366,-0.98192 0.15677,-0.34319 0.29913,-0.69162 0.45456,-1.03543 0,0 0.8919,0.0414 0.8919,0.0414 z"
       id="path4438"
       style="fill:#000000;fill-opacity:1;stroke-width:3;stroke-miterlimit:4;stroke-dasharray:none;stroke-dashoffset:0" />
    <path
       inkscape:connector-curvature="0"
       d="m 264.61751,634.39689 c -0.15376,0.31044 -0.3118,0.61032 -0.40332,0.9463 -0.10502,0.28304 -0.15233,0.58183 -0.23928,0.86956 0,0 -0.89245,-0.0268 -0.89245,-0.0268 l 0,0 c 0.0908,-0.28532 0.13092,-0.5851 0.23918,-0.86605 0.0901,-0.34312 0.24517,-0.64958 0.40398,-0.96436 0,0 0.89189,0.0414 0.89189,0.0414 z"
       id="path4440"
       style="fill:#000000;fill-opacity:1;stroke-width:3;stroke-miterlimit:4;stroke-dasharray:none;stroke-dashoffset:0" />
    <path
       inkscape:connector-curvature="0"
       d="m 264.97466,634.39689 c -0.19867,0.35841 -0.3947,0.71857 -0.57886,1.08471 -0.1725,0.33861 -0.3432,0.6807 -0.4874,1.0326 -0.0682,0.12845 -0.13094,0.25863 -0.18743,0.39257 0,0 -0.89217,-0.0349 -0.89217,-0.0349 l 0,0 c 0.0543,-0.13472 0.11331,-0.26646 0.1874,-0.39184 0.14079,-0.35554 0.31589,-0.69857 0.4877,-1.03976 0.18206,-0.36716 0.37842,-0.72747 0.57886,-1.08476 0,0 0.8919,0.0414 0.8919,0.0414 z"
       id="path4442"
       style="fill:#000000;fill-opacity:1;stroke-width:3;stroke-miterlimit:4;stroke-dasharray:none;stroke-dashoffset:0" />
    <path
       inkscape:connector-curvature="0"
       d="m 265.15293,637.28717 c 0.19115,-0.35214 0.37284,-0.71005 0.57983,-1.0533 0.17159,-0.29441 0.2675,-0.62344 0.41782,-0.92848 0.13545,-0.26385 0.27954,-0.52321 0.4209,-0.78396 0,0 5.70528,0.3207 5.70528,0.3207 l 0,0 c -0.1683,0.22338 -0.26256,0.49114 -0.41784,0.72385 -0.15548,0.31816 -0.29378,0.63946 -0.41995,0.97157 -0.19387,0.33769 -0.39054,0.67307 -0.57789,1.01447 0,0 -5.70815,-0.26485 -5.70815,-0.26485 z"
       id="path4456"
       style="fill:#000000;fill-opacity:1;stroke-width:3;stroke-miterlimit:4;stroke-dasharray:none;stroke-dashoffset:0" />
    <path
       inkscape:connector-curvature="0"
       d="m 269.75,637.21967 c -0.0257,-0.39024 0.05,-0.77261 0.10787,-1.15616 0.04,-0.32993 0.131,-0.65283 0.22069,-0.97239 0.0162,-0.0456 0.0323,-0.0913 0.0485,-0.13688 0,0 5.71076,0.2008 5.71076,0.2008 l 0,0 c -0.0161,0.0422 -0.0321,0.0845 -0.0482,0.12675 -0.12155,0.26465 -0.15775,0.58282 -0.21812,0.86545 -0.0515,0.35662 -0.13467,0.7095 -0.10725,1.07243 0,0 -5.71429,0 -5.71429,0 z"
       id="path4458"
       style="fill:#000000;fill-opacity:1;stroke-width:3;stroke-miterlimit:4;stroke-dasharray:none;stroke-dashoffset:0" />
    <path
       inkscape:connector-curvature="0"
       d="m 271.17857,637.57681 c -0.008,-0.42318 -0.006,-0.84243 0.0511,-1.26217 0.0353,-0.35152 0.17401,-0.67857 0.2458,-1.02232 0.0247,-0.21573 0.0566,-0.42808 0.10678,-0.63951 0,0 5.71254,0.14135 5.71254,0.14135 l 0,0 c -0.0542,0.20044 -0.0944,0.39703 -0.10604,0.60559 -0.0595,0.34005 -0.18468,0.65787 -0.24536,0.99552 -0.0589,0.39272 -0.0583,0.78473 -0.0506,1.18154 0,0 -5.71429,0 -5.71429,0 z"
       id="path4460"
       style="fill:#000000;fill-opacity:1;stroke-width:3;stroke-miterlimit:4;stroke-dasharray:none;stroke-dashoffset:0" />
    <g
       id="g4549"
       transform="translate(-88.25386,134.17264)">
      <g
         word-spacing="normal"
         letter-spacing="normal"
         font-size-adjust="none"
         font-stretch="normal"
         font-weight="normal"
         font-variant="normal"
         font-style="normal"
         stroke-miterlimit="10.433"
         xml:space="preserve"
         transform="matrix(1.0629921,0,0,-1.0629921,-186.02362,789.27165)"
         id="g4551"
         style="font-style:normal;font-variant:normal;font-weight:normal;font-stretch:normal;letter-spacing:normal;word-spacing:normal;text-anchor:start;fill:none;stroke:#000000;stroke-linecap:butt;stroke-linejoin:miter;stroke-miterlimit:10.43299961;stroke-opacity:1;stroke-dasharray:none;stroke-dashoffset:0"><polygon
           id="polygon4553"
           points="458.35,444.51 464.13,449.59 469.87,444.51 470.76,445.4 464.13,452.18 457.46,445.4 "
           style="fill:#000000;stroke-width:0" /><path
           id="path4555"
           d="m 469.68,437.34 -0.01,0.09 0,0.09 -0.01,0.1 -0.02,0.08 -0.01,0.09 -0.03,0.09 -0.02,0.08 -0.03,0.08 -0.03,0.08 -0.04,0.08 -0.04,0.08 -0.05,0.07 -0.04,0.07 -0.06,0.07 -0.05,0.06 -0.06,0.06 -0.06,0.06 -0.06,0.06 -0.07,0.05 -0.07,0.05 -0.08,0.05 -0.07,0.04 -0.09,0.04 -0.08,0.04 -0.08,0.03 -0.09,0.03 -0.1,0.02 -0.09,0.02 -0.1,0.02 -0.1,0.01 -0.1,0 -0.11,0.01 c -1.36,0 -2.7,-1.3 -2.7,-2.64 0,-0.96 0.7,-1.8 1.91,-1.8 1.14,0 2.64,1.14 2.64,2.64 z"
           inkscape:connector-curvature="0"
           style="fill:#000000;stroke-width:0" /><path
           id="path4557"
           d="m 465.88,418.61 0.05,0.13 0.05,0.12 0.05,0.12 0.05,0.11 0.04,0.1 0.04,0.1 0.03,0.09 0.04,0.09 0.03,0.09 0.04,0.08 0.03,0.08 0.02,0.08 0.03,0.07 0.03,0.07 0.05,0.15 0.05,0.14 0.05,0.14 0.03,0.07 0.03,0.08 0.03,0.08 0.02,0.08 0.04,0.08 0.03,0.09 0.03,0.1 0.04,0.09 0.03,0.11 0.04,0.11 0.05,0.11 0.04,0.13 c 0.41,1 0.66,1.68 0.66,2.64 0,2.23 -1.59,4.07 -4.09,4.07 -4.68,0 -6.58,-7.21 -6.58,-7.67 0,-0.5 0.5,-0.5 0.61,-0.5 0.5,0 0.54,0.11 0.79,0.91 1.35,4.69 3.33,6.17 5.03,6.17 0.4,0 1.25,0 1.25,-1.59 0,-1.05 -0.35,-2.1 -0.56,-2.6 -0.39,-1.29 -2.64,-7.06 -3.44,-9.22 -0.48,-1.28 -1.14,-2.93 -1.14,-3.98 0,-2.33 1.69,-4.08 4.1,-4.08 4.67,0 6.51,7.22 6.51,7.67 0,0.5 -0.43,0.5 -0.59,0.5 -0.5,0 -0.5,-0.15 -0.75,-0.9 -0.89,-3.13 -2.53,-6.17 -5.08,-6.17 -0.84,0 -1.2,0.5 -1.2,1.64 0,1.25 0.31,1.95 1.45,4.98 z"
           inkscape:connector-curvature="0"
           style="fill:#000000;stroke-width:0" /></g>    </g>
    <g
       transform="translate(-17.54319,324.08132)"
       id="g4699">
      <g
         style="font-style:normal;font-variant:normal;font-weight:normal;font-stretch:normal;letter-spacing:normal;word-spacing:normal;text-anchor:start;fill:none;stroke:#000000;stroke-linecap:butt;stroke-linejoin:miter;stroke-miterlimit:10.43299961;stroke-opacity:1;stroke-dasharray:none;stroke-dashoffset:0"
         id="g4701"
         transform="matrix(1.0629921,0,0,-1.0629921,-186.02362,789.27165)"
         xml:space="preserve"
         stroke-miterlimit="10.433"
         font-style="normal"
         font-variant="normal"
         font-weight="normal"
         font-stretch="normal"
         font-size-adjust="none"
         letter-spacing="normal"
         word-spacing="normal"><polygon
           style="fill:#000000;stroke-width:0"
           points="467.25,449.59 472.99,444.51 473.88,445.4 467.25,452.18 460.58,445.4 461.47,444.51 "
           id="polygon4703" /><path
           style="fill:#000000;stroke-width:0"
           inkscape:connector-curvature="0"
           d="m 475.3,437.34 0,0.09 -0.01,0.08 -0.01,0.09 -0.01,0.09 -0.02,0.08 -0.02,0.08 -0.03,0.09 -0.03,0.08 -0.03,0.07 -0.04,0.08 -0.04,0.08 -0.04,0.07 -0.05,0.07 -0.05,0.07 -0.06,0.07 -0.06,0.06 -0.06,0.06 -0.07,0.06 -0.07,0.05 -0.07,0.06 -0.08,0.04 -0.07,0.05 -0.09,0.04 -0.08,0.04 -0.09,0.03 -0.09,0.03 -0.1,0.03 -0.1,0.02 -0.1,0.01 -0.1,0.02 -0.11,0 -0.11,0.01 c -1.16,0 -2.64,-1.16 -2.64,-2.64 0,-1 0.69,-1.8 1.84,-1.8 1.35,0 2.69,1.3 2.69,2.64 z"
           id="path4705" /><path
           style="fill:#000000;stroke-width:0"
           inkscape:connector-curvature="0"
           d="m 465.29,403.71 -0.1,-0.35 -0.1,-0.35 -0.11,-0.34 -0.12,-0.33 -0.12,-0.33 -0.14,-0.32 -0.14,-0.31 -0.14,-0.3 -0.16,-0.3 -0.16,-0.29 -0.16,-0.28 -0.18,-0.26 -0.18,-0.26 -0.18,-0.25 -0.2,-0.24 -0.19,-0.23 -0.2,-0.22 -0.21,-0.2 -0.21,-0.19 -0.22,-0.19 -0.22,-0.16 -0.23,-0.16 -0.23,-0.14 -0.23,-0.13 -0.24,-0.12 -0.24,-0.1 -0.25,-0.08 -0.25,-0.08 -0.25,-0.05 -0.25,-0.04 -0.26,-0.03 -0.26,-0.01 c -0.3,0 -1.05,0 -1.95,0.46 1.5,0.36 2.25,1.64 2.25,2.64 0,0.79 -0.55,1.75 -1.89,1.75 -1.25,0 -2.69,-1.05 -2.69,-2.85 0,-2 1.98,-3.09 4.37,-3.09 3.49,0 8.13,2.64 9.38,7.58 l 4.58,18.23 c 0.25,1 0.25,1.69 0.25,1.85 0,2.84 -2.1,4.57 -4.58,4.57 -5.09,0 -7.92,-7.21 -7.92,-7.67 0,-0.5 0.48,-0.5 0.59,-0.5 0.45,0 0.5,0.07 0.89,1 1.25,3.05 3.55,6.08 6.28,6.08 0.71,0 1.6,-0.2 1.6,-2.28 0,-1.16 -0.16,-1.7 -0.35,-2.55 z"
           id="path4707" /></g>    </g>
    <g
       id="g4859"
       transform="translate(148.12183,14.974644)">
      <g
         word-spacing="normal"
         letter-spacing="normal"
         font-size-adjust="none"
         font-stretch="normal"
         font-weight="normal"
         font-variant="normal"
         font-style="normal"
         stroke-miterlimit="10.433"
         xml:space="preserve"
         transform="matrix(1.0629921,0,0,-1.0629921,-186.02362,789.27165)"
         id="g4861"
         style="font-style:normal;font-variant:normal;font-weight:normal;font-stretch:normal;letter-spacing:normal;word-spacing:normal;text-anchor:start;fill:none;stroke:#000000;stroke-linecap:butt;stroke-linejoin:miter;stroke-miterlimit:10.43299961;stroke-opacity:1;stroke-dasharray:none;stroke-dashoffset:0"><polygon
           id="polygon4863"
           points="463.51,446.19 469.29,451.27 475.03,446.19 475.92,447.08 469.29,453.86 462.62,447.08 "
           style="fill:#000000;stroke-width:0" /><path
           id="path4865"
           d="m 469.82,440.23 0,0 0,0.01 0,0 0,0.01 -0.01,0.02 0,0.01 0,0.02 0,0.02 0,0.02 -0.01,0.02 0,0.02 -0.01,0.02 -0.01,0.02 -0.01,0.03 -0.01,0.02 -0.01,0.03 -0.01,0.02 -0.02,0.03 -0.02,0.02 -0.02,0.02 -0.02,0.03 -0.01,0.01 -0.01,0.01 -0.02,0.01 -0.01,0.01 -0.02,0.01 -0.01,0.01 -0.02,0.01 -0.01,0.01 -0.02,0.01 -0.02,0.01 -0.02,0 -0.02,0.01 -0.02,0.01 -0.02,0 -0.02,0.01 -0.02,0.01 -0.03,0 -0.02,0 -0.03,0.01 -0.02,0 -0.03,0 -0.03,0.01 -0.02,0 -0.03,0 c -1.16,0 -4.79,-0.41 -6.08,-0.5 -0.41,-0.05 -0.96,-0.1 -0.96,-1 0,-0.6 0.46,-0.6 1.21,-0.6 2.39,0 2.48,-0.34 2.48,-0.84 l -0.15,-1 -7.22,-28.7 c -0.21,-0.69 -0.21,-0.8 -0.21,-1.1 0,-1.14 1,-1.39 1.46,-1.39 0.64,0 1.39,0.46 1.68,1.05 0.25,0.45 2.5,9.66 2.8,10.91 1.69,-0.15 5.78,-0.94 5.78,-4.24 0,-0.34 0,-0.55 -0.15,-1.05 -0.1,-0.59 -0.21,-1.18 -0.21,-1.73 0,-2.95 2,-4.94 4.6,-4.94 1.48,0 2.83,0.8 3.93,2.64 1.24,2.19 1.79,4.94 1.79,5.03 0,0.5 -0.44,0.5 -0.6,0.5 -0.5,0 -0.54,-0.2 -0.7,-0.9 -0.99,-3.63 -2.14,-6.17 -4.33,-6.17 -0.94,0 -1.59,0.54 -1.59,2.34 0,0.84 0.2,1.98 0.4,2.78 0.19,0.86 0.19,1.05 0.19,1.55 0,3.25 -3.14,4.69 -7.37,5.23 1.54,0.91 3.14,2.5 4.29,3.69 2.39,2.64 4.67,4.78 7.13,4.78 0.29,0 0.34,0 0.44,-0.05 0.6,-0.09 0.65,-0.09 1.04,-0.39 0.11,-0.06 0.11,-0.11 0.21,-0.2 -2.4,-0.16 -2.85,-2.09 -2.85,-2.69 0,-0.79 0.55,-1.75 1.89,-1.75 1.3,0 2.75,1.1 2.75,3.03 0,1.5 -1.15,3.14 -3.39,3.14 -1.39,0 -3.69,-0.39 -7.28,-4.37 -1.69,-1.89 -3.62,-3.89 -5.52,-4.64 z"
           inkscape:connector-curvature="0"
           style="fill:#000000;stroke-width:0" /><path
           id="path4867"
           d="m 531.15,422.5 0.14,0 0.15,0 0.14,0 0.07,0.01 0.08,0 0.07,0.01 0.07,0.01 0.07,0.01 0.07,0.01 0.07,0.01 0.06,0.02 0.07,0.02 0.06,0.02 0.06,0.02 0.06,0.03 0.06,0.03 0.05,0.04 0.05,0.03 0.05,0.05 0.04,0.04 0.04,0.05 0.02,0.03 0.02,0.03 0.01,0.02 0.02,0.03 0.01,0.03 0.01,0.04 0.02,0.03 0.01,0.04 0.01,0.03 0.01,0.04 0,0.04 0.01,0.04 0,0.04 0.01,0.04 0,0.04 0,0.05 c 0,1 -0.95,1 -1.64,1 h -29.84 c -0.71,0 -1.65,0 -1.65,-1 0,-0.98 0.94,-0.98 1.69,-0.98 z"
           inkscape:connector-curvature="0"
           style="fill:#000000;stroke-width:0" /><path
           id="path4869"
           d="m 531.2,412.82 0.06,0 0.07,0 0.14,0.01 0.14,0 0.07,0 0.07,0.01 0.07,0.01 0.06,0 0.07,0.01 0.07,0.02 0.07,0.01 0.06,0.02 0.07,0.02 0.06,0.02 0.06,0.02 0.05,0.03 0.06,0.03 0.05,0.04 0.05,0.04 0.05,0.04 0.04,0.05 0.02,0.02 0.02,0.03 0.02,0.02 0.02,0.03 0.01,0.03 0.02,0.03 0.01,0.03 0.01,0.03 0.02,0.04 0.01,0.03 0.01,0.04 0.01,0.04 0,0.04 0.01,0.04 0,0.04 0.01,0.04 0,0.05 0,0.04 c 0,1 -0.95,1 -1.69,1 H 501.4 c -0.75,0 -1.69,0 -1.69,-1 0,-1 0.94,-1 1.65,-1 z"
           inkscape:connector-curvature="0"
           style="fill:#000000;stroke-width:0" /><polygon
           id="polygon4871"
           points="552.31,444.51 558.09,449.59 563.83,444.51 564.72,445.4 558.09,452.18 551.42,445.4 "
           style="fill:#000000;stroke-width:0" /><path
           id="path4873"
           d="m 563.64,437.34 -0.01,0.09 0,0.09 -0.01,0.1 -0.02,0.08 -0.01,0.09 -0.03,0.09 -0.02,0.08 -0.03,0.08 -0.03,0.08 -0.04,0.08 -0.04,0.08 -0.05,0.07 -0.04,0.07 -0.05,0.07 -0.06,0.06 -0.06,0.06 -0.06,0.06 -0.06,0.06 -0.07,0.05 -0.07,0.05 -0.08,0.05 -0.07,0.04 -0.08,0.04 -0.09,0.04 -0.08,0.03 -0.09,0.03 -0.1,0.02 -0.09,0.02 -0.1,0.02 -0.1,0.01 -0.1,0 -0.11,0.01 c -1.36,0 -2.7,-1.3 -2.7,-2.64 0,-0.96 0.7,-1.8 1.91,-1.8 1.14,0 2.64,1.14 2.64,2.64 z"
           inkscape:connector-curvature="0"
           style="fill:#000000;stroke-width:0" /><path
           id="path4875"
           d="m 559.84,418.61 0.05,0.13 0.05,0.12 0.05,0.12 0.05,0.11 0.04,0.1 0.04,0.1 0.04,0.09 0.03,0.09 0.03,0.09 0.04,0.08 0.03,0.08 0.03,0.08 0.02,0.07 0.03,0.07 0.05,0.15 0.05,0.14 0.05,0.14 0.03,0.07 0.03,0.08 0.03,0.08 0.03,0.08 0.03,0.08 0.03,0.09 0.03,0.1 0.04,0.09 0.04,0.11 0.04,0.11 0.04,0.11 0.04,0.13 c 0.41,1 0.66,1.68 0.66,2.64 0,2.23 -1.59,4.07 -4.09,4.07 -4.68,0 -6.58,-7.21 -6.58,-7.67 0,-0.5 0.5,-0.5 0.61,-0.5 0.5,0 0.54,0.11 0.79,0.91 1.35,4.69 3.33,6.17 5.03,6.17 0.4,0 1.25,0 1.25,-1.59 0,-1.05 -0.35,-2.1 -0.56,-2.6 -0.39,-1.29 -2.64,-7.06 -3.44,-9.22 -0.48,-1.28 -1.13,-2.93 -1.13,-3.98 0,-2.33 1.68,-4.08 4.09,-4.08 4.67,0 6.51,7.22 6.51,7.67 0,0.5 -0.43,0.5 -0.59,0.5 -0.5,0 -0.5,-0.15 -0.75,-0.9 -0.89,-3.13 -2.53,-6.17 -5.08,-6.17 -0.84,0 -1.2,0.5 -1.2,1.64 0,1.25 0.31,1.95 1.45,4.98 z"
           inkscape:connector-curvature="0"
           style="fill:#000000;stroke-width:0" /><path
           id="path4877"
           d="m 597.05,420.04 -9.95,9.92 c -0.61,0.6 -0.7,0.71 -1.11,0.71 -0.49,0 -0.99,-0.46 -0.99,-1 0,-0.36 0.1,-0.46 0.65,-1 l 9.96,-10.02 -9.96,-10.01 c -0.55,-0.55 -0.65,-0.64 -0.65,-1 0,-0.55 0.5,-0.99 0.99,-0.99 0.41,0 0.5,0.1 1.11,0.69 l 9.9,9.92 10.32,-10.31 c 0.11,-0.05 0.45,-0.3 0.75,-0.3 0.59,0 1,0.44 1,0.99 0,0.11 0,0.31 -0.16,0.56 -0.05,0.09 -7.97,7.92 -10.45,10.45 l 9.11,9.13 c 0.25,0.29 1,0.93 1.25,1.23 0.04,0.11 0.25,0.3 0.25,0.66 0,0.54 -0.41,1 -1,1 -0.39,0 -0.6,-0.21 -1.14,-0.75 z"
           inkscape:connector-curvature="0"
           style="fill:#000000;stroke-width:0" /><polygon
           id="polygon4879"
           points="633.43,444.51 639.22,449.59 644.95,444.51 645.84,445.4 639.22,452.18 632.54,445.4 "
           style="fill:#000000;stroke-width:0" /><path
           id="path4881"
           d="m 647.26,437.34 0,0.09 -0.01,0.08 -0.01,0.09 -0.01,0.09 -0.02,0.08 -0.02,0.08 -0.03,0.09 -0.03,0.08 -0.03,0.07 -0.04,0.08 -0.04,0.08 -0.04,0.07 -0.05,0.07 -0.05,0.07 -0.06,0.07 -0.06,0.06 -0.06,0.06 -0.07,0.06 -0.07,0.05 -0.07,0.06 -0.07,0.04 -0.08,0.05 -0.09,0.04 -0.08,0.04 -0.09,0.03 -0.09,0.03 -0.1,0.03 -0.1,0.02 -0.1,0.01 -0.1,0.02 -0.11,0 -0.11,0.01 c -1.15,0 -2.64,-1.16 -2.64,-2.64 0,-1 0.69,-1.8 1.84,-1.8 1.35,0 2.69,1.3 2.69,2.64 z"
           inkscape:connector-curvature="0"
           style="fill:#000000;stroke-width:0" /><path
           id="path4883"
           d="m 637.25,403.71 -0.1,-0.35 -0.1,-0.35 -0.11,-0.34 -0.12,-0.33 -0.12,-0.33 -0.13,-0.32 -0.14,-0.31 -0.15,-0.3 -0.16,-0.3 -0.16,-0.29 -0.16,-0.28 -0.18,-0.26 -0.18,-0.26 -0.18,-0.25 -0.19,-0.24 -0.2,-0.23 -0.2,-0.22 -0.21,-0.2 -0.21,-0.19 -0.22,-0.19 -0.22,-0.16 -0.23,-0.16 -0.23,-0.14 -0.23,-0.13 -0.24,-0.12 -0.24,-0.1 -0.25,-0.08 -0.25,-0.08 -0.25,-0.05 -0.25,-0.04 -0.26,-0.03 -0.26,-0.01 c -0.3,0 -1.05,0 -1.95,0.46 1.5,0.36 2.25,1.64 2.25,2.64 0,0.79 -0.55,1.75 -1.89,1.75 -1.25,0 -2.69,-1.05 -2.69,-2.85 0,-2 1.98,-3.09 4.38,-3.09 3.48,0 8.12,2.64 9.37,7.58 l 4.58,18.23 c 0.25,1 0.25,1.69 0.25,1.85 0,2.84 -2.1,4.57 -4.58,4.57 -5.09,0 -7.92,-7.21 -7.92,-7.67 0,-0.5 0.48,-0.5 0.59,-0.5 0.46,0 0.5,0.07 0.89,1 1.25,3.05 3.55,6.08 6.28,6.08 0.71,0 1.6,-0.2 1.6,-2.28 0,-1.16 -0.16,-1.7 -0.35,-2.55 z"
           inkscape:connector-curvature="0"
           style="fill:#000000;stroke-width:0" /></g>    </g>
  </g>
</svg>
